<svg xmlns="http://www.w3.org/2000/svg" width="50" height="50" viewBox="0 0 13.229167 13.229167">
  <path d="M6.614583 0L0 3.307292v6.614583l6.614583 3.307292 6.614584-3.307292V3.307292L6.614583 0zM5.598625 1.405082h1.698604l-.239262.774113v1.138949h.26665V2.3797l.870231.001033c.083202-.15816.246685-.258382.426848-.258382.179725 0 .342653.099579.425814.257349h.866613v8.280114H4.77697L4.758883 6.01307c.020601-.481819.022363-.67053.213423-.90537.200248-.24611.518668-.392514.924492-.425814V3.85351h-.822172c-.116848.37416-.462942.63097-.858346.63097-.49686 0-.901237-.404377-.901237-.901237 0-.49662.404377-.90072.901237-.90072.397671 0 .7444.25887.859896.63562h.820622V2.181779l-.298173-.776697zm.182934.125574l.240812.627869v1.285192h-1.04283l-.011886-.047542c-.086064-.34621-.395066-.588078-.751375-.588078-.4238 0-.77494.387957-.78083.810287l3.873664-.01292v-.161747h-.377237l.0031-1.292427.19172-.620634H5.781559zm2.935221.729154l-.211356.20929.154512.156063.211357-.208773-.154513-.15658zm-1.010274.457337v.589111l.979785.000517-.022737 6.778398h.845426V2.717146h-.45682c-.00234.0048-.005758.008437-.008268.013437-.00505.0092-.01053.018388-.01602.027388-.007079.011-.013984.02174-.021704.03204-.006084.0084-.012877.016288-.019636.024288-.008194.01-.016769.018905-.025839.027905-.007159.0071-.0147.014187-.02222.021187-.009626.0086-.019672.016771-.029973.023771-.008153.006-.015698.01257-.024288.01757-.010977.0071-.022374.013637-.034106.019637-.008352.0048-.017008.009953-.025839.013953-.012487.0062-.025275.009986-.03824.014986-.008591.003-.017048.005785-.025838.008785-.014755.0043-.030005.007335-.045476.010335-.007397.002-.01462.004168-.02222.005168-.023107.003-.046855.005168-.070797.005168-.023942 0-.047968-.002168-.071314-.005168-.007715-.001-.015097-.003168-.022737-.005168-.015232-.0033-.030482-.006335-.044959-.010335-.009028-.002-.016968-.005785-.025838-.008785-.012726-.0047-.025872-.008986-.03824-.014986-.009027-.0038-.017249-.008953-.025839-.013953-.011454-.0063-.02313-.012637-.034106-.019637-.008392-.0053-.016098-.01157-.024288-.01757-.010062-.0075-.020312-.015254-.029972-.023254-.007756-.0069-.014861-.014705-.022221-.021704-.008988-.0087-.017449-.017906-.025839-.027905-.006563-.0077-.013396-.016288-.019637-.024288-.007674-.0103-.014824-.020523-.021704-.031523-.005688-.009-.01093-.018389-.01602-.027388-.00262-.0048-.005998-.008953-.008268-.013953h-.484208zm-.005167.730188l-.000517.157613h.664558v-.157613H7.70134zM6.02237 3.85041v.95033l-.059428.0031c-.39767.02152-.7066.15376-.893485.38344-.168267.20721-.18075.552516-.1757.845426l.008785 2.306319H8.04602v-2.05879l.006718-.4408c.02422-.287949-.046252-.495064-.161747-.644404-.00207-.003-.003218-.006268-.005167-.008268-.00095-.001-.002226-.001584-.003101-.002584-.047566-.05953-.101932-.10983-.160714-.15193-.00183-.000999-.004251-.002616-.006201-.003617-.026845-.0189-.054446-.03611-.082166-.05271L7.50962 4.91443c.004181.003.008422.005268.012403.008268-.290011-.12216-.590145-.112138-.590145-.112138v-.960148H6.02237zm1.035596.002584v.829407l.001034-.001034c.405823.03329.724204.18022.92449.42633.02621.0322.048647.063685.068214.095085V3.852995h-.993738z" fill="#fbc52c" stroke-width=".150316"/>
  <path d="M7.633737 4.97627c.028595.0163.056435.0335.082286.0522-.026885-.0189-.054128-.0366-.082286-.0522" fill="#3f4c9a" stroke-width=".039771"/>
  <path fill="#fbc52c" stroke-width=".039771" d="M8.571659 2.57451l.201122-.21918"/>
</svg>
