<svg xmlns="http://www.w3.org/2000/svg" width="50" height="50" viewBox="0 0 13.229167 13.229167">
  <path d="M6.614583 0L0 3.307292v6.614583l6.614583 3.307292 6.614583-3.307292V3.307292L6.614583 0zM9.24388 2.545064c.522315 0 1.11223.189782 1.753898.564307l.271301.15813-.310575-.047026c-.427063-.064548-.953041.438171-1.093473.762745-.226617.523269-.75456.848487-1.377177.848527-.385188 0-.739737-.129243-1.009758-.358635-.786026 3.699123.392611 6.323194.663525 7.67705-.430086-.978596-1.199014-2.477087-1.290877-4.661213-.38935.406465-.945594.639237-1.556494.639237-.86896 0-1.605188-.453669-1.92133-1.18339-.189828-.43796-.869932-1.100191-1.462443-1.100191-.036947 0-.073561.002978-.10852.008268l-.310059.047025.270785-.15813c.90217-.52653 1.731267-.793233 2.464449-.793233 1.168628 0 2.046789.660447 2.61586 1.96112.01038-.7275.0935-1.521257.289389-2.394685.021689-.096492.0645-.179549.113171-.242362l.025322-.069247c.393257-1.085077 1.07557-1.658297 1.973006-1.658297zm0 .11989c-.79435 0-1.391293.459383-1.776636 1.366324.639958-.515275 1.087841-.745281 2.008663-.925524.124683-.028993.248028-.050636.364319-.064596l.017053.118856c-.127307.0208-.246281.041688-.358117.063562-.771718.179265-1.601452.623057-2.014865.973584.014152.027617.016686.075117.01292.132808.254151.243887.60592.38189.990637.38189.574097-.00004 1.059739-.297455 1.267106-.77618.134307-.310136.56723-.74744.994771-.827857-.550194-.294188-1.05576-.442867-1.505851-.442867zm-5.016748 2.40347c-.657299-.00004-1.397441.22306-2.202967.663526.617369.07302 1.26359.714935 1.458826 1.165303.296733.685139.990939 1.111044 1.81126 1.111044.616134 0 1.175293-.24616 1.543057-.677478-.599908-.561967-2.167845-1.406992-3.469555-1.562696l.003617-.119372c1.202163-.076281 2.611553.487943 3.349667 1.277958-.5492-1.233742-1.386556-1.858284-2.493905-1.858284zm-.10387.730189c.952162.26249 1.925328.772979 2.509408 1.208195-.565626-.607068-1.54269-1.076434-2.509408-1.208195z" fill="#92c01f" stroke-width=".150316"/>
</svg>
