<svg xmlns="http://www.w3.org/2000/svg" width="50" height="50" viewBox="0 0 13.229167 13.229167">
  <path d="M6.614583 0L0 3.307292v6.614583l6.614583 3.307292 6.614584-3.307292V3.307292L6.614583 0zm0 1.949752c2.112937 0 3.767729 1.632029 3.767729 3.715535 0 1.284523-1.291322 2.725666-1.346171 2.786393-.04758.052506-.096517.097349-.14366.14056-.102669.09413-.184076.168496-.216525.29559l-.112138.28112c-.062395.24668-.32701.435632-.624768.435632H5.211051c-.298948 0-.557599-.191909-.615466-.45682l-.094051-.277502c-.031694-.142147-.111748-.218437-.212907-.315227-.043649-.041742-.088803-.085309-.133325-.135392-.05334-.06017-1.308964-1.488061-1.308964-2.754354 0-2.083506 1.655309-3.715535 3.768245-3.715535zm0 .218591c-1.99033 0-3.549654 1.535964-3.549654 3.496944 0 1.182847 1.24108 2.595044 1.25367 2.609143.040234.045357.081445.084703.120923.122473.112836.107792.22952.219635.272335.415479l.094051.276986c.038525.174158.211405.296622.405143.296622h2.728c.196121 0 .375405-.122732.417028-.285254l.112655-.280602c.043926-.176185.161964-.284152.275952-.388607.042457-.038843.086297-.079424.12919-.126608.01283-.014179 1.290362-1.439627 1.290362-2.639632 0-1.96102-1.559245-3.496944-3.549655-3.496944zm-.1726.859379h.34365l.119889.457853c.105527.013742.209536.035364.311609.063562l.287837-.376204.317293.133842-.068212.468705c.083246.048415.163085.101854.239778.160714l.408244-.239262.243396.24288-.239262.408243c.064143.083326.123354.172044.176217.265617l.47439-.064596.129707.318844-.384472.285254c.024783.094288.043458.188939.05581.283703l.457853.119373v.343648l-.457853.119373c-.013782.105567-.035363.210093-.063562.312126l.376205.287837-.133842.317293-.468706-.068213c-.048295.083128-.10229.163205-.16123.23978l.239779.408243-.24288.243396-.408243-.239262c-.083485.064222-.172084.123354-.265617.176217l.064595.47439-.318843.129707-.285254-.384472c-.094288.024823-.1889.043379-.283704.05581l-.119372.457853h-.344166l-.119372-.457853c-.105528-.013821-.209576-.035204-.311609-.063562l-.287838.376205-.317293-.133842.068213-.468706c-.083167-.048454-.163125-.10237-.239779-.16123l-.408243.239778L4.5837 7.51737l.239261-.408243c-.064142-.083286-.123313-.171528-.176216-.2651l-.47439.064078-.129708-.318326.384473-.285254c-.024942-.094248-.04338-.1889-.05581-.283704l-.457854-.119372v-.344166l.457853-.119372c.013663-.105528.035363-.209656.063562-.311609l-.376204-.288355.133842-.316776.468705.067696c.048415-.083087.10233-.163006.16123-.239778l-.239778-.408244.24288-.243396.408243.239778c.083366-.064142.172044-.123313.265617-.176216l-.064596-.47439.318844-.129708.285254.384473c.094288-.024863.1889-.04338.283703-.05581l.119373-.457854zm.110072.816488c-.955189.030473-1.750876.78014-1.818494 1.753898-.072165 1.038794.711447 1.93912 1.75028 2.011247 1.038676.072125 1.939162-.71097 2.011248-1.749764.072165-1.038676-.711129-1.939638-1.749764-2.011764a1.91301 1.91301 0 00-.19327-.003617zm.062528.51418c.741275 0 1.342037.600762 1.342037 1.342037 0 .741275-.600762 1.342037-1.342037 1.342037-.741275 0-1.342037-.600762-1.342037-1.342037 0-.741275.600762-1.342037 1.342037-1.342037zM5.414657 9.714652H7.81451c.133607 0 .242363.108755.242363.242363v.250114c0 .13329-.108716.241846-.242363.241846H5.414657c-.133489 0-.241846-.108517-.241846-.241846v-.250114c0-.133608.108357-.242363.241846-.242363zm0 .218592c-.01267 0-.023255.010863-.023255.02377v.250115c0 .013265.00995.023254.023255.023254H7.81451c.013226 0 .023254-.010227.023254-.023254v-.250114c0-.012908-.010425-.023771-.023254-.023771H5.414657zm.026354.619083h2.346627l-.08785.161748c-.186828.34363-.612733.56534-1.085205.56534-.472154 0-.89802-.22171-1.085205-.56534l-.088367-.161748zm.401526.218592c.17952.180394.462771.289905.772046.289905.309593 0 .592367-.109511.77153-.289905H5.842537z" fill="#ed732e" stroke-width=".150111"/>
</svg>
