<?xml version="1.0" encoding="UTF-8" standalone="no"?>
<svg
   xmlns:dc="http://purl.org/dc/elements/1.1/"
   xmlns:cc="http://creativecommons.org/ns#"
   xmlns:rdf="http://www.w3.org/1999/02/22-rdf-syntax-ns#"
   xmlns:svg="http://www.w3.org/2000/svg"
   xmlns="http://www.w3.org/2000/svg"
   xmlns:sodipodi="http://sodipodi.sourceforge.net/DTD/sodipodi-0.dtd"
   xmlns:inkscape="http://www.inkscape.org/namespaces/inkscape"
   version="1.1"
   id="Calque_1"
   x="0"
   y="0"
   viewBox="0 0 150 50.000001"
   xml:space="preserve"
   sodipodi:docname="logoHBlanc (1).svg"
   width="150"
   height="50"
   inkscape:version="0.92.4 (5da689c313, 2019-01-14)"><metadata
   id="metadata270"><rdf:RDF><cc:Work
       rdf:about=""><dc:format>image/svg+xml</dc:format><dc:type
         rdf:resource="http://purl.org/dc/dcmitype/StillImage" /><dc:title></dc:title></cc:Work></rdf:RDF></metadata><defs
   id="defs268" /><sodipodi:namedview
   pagecolor="#ffffff"
   bordercolor="#666666"
   borderopacity="1"
   objecttolerance="10"
   gridtolerance="10"
   guidetolerance="10"
   inkscape:pageopacity="0"
   inkscape:pageshadow="2"
   inkscape:window-width="1920"
   inkscape:window-height="1001"
   id="namedview266"
   showgrid="false"
   inkscape:zoom="1.6383764"
   inkscape:cx="135.5"
   inkscape:cy="52.349998"
   inkscape:window-x="-9"
   inkscape:window-y="-9"
   inkscape:window-maximized="1"
   inkscape:current-layer="Calque_1" />
  <style
   type="text/css"
   id="style2">
    .st1{fill:#93c021}.st2{fill:#4bbcc4}.st3{fill:#ee732e}.st4{fill:#5c5c5c}.st5{fill:#fcc62d}.st6{fill:none;stroke:#000;stroke-width:.283;stroke-miterlimit:10}.st7{fill:#e73737}.st8{fill:#5e4b99}
  </style>
  <path
   id="polygon10"
   d="m 16.4,378.5 h -4.3 v -11.1 h -0.9 v 11.8 h 5.2 z"
   inkscape:connector-curvature="0" />
  <path
   d="m 20.5,375.7 h 3.6 l 1,3.5 H 26 L 22.7,367.4 H 22 l -2.2,7.6 v 0.1 l -1.1,4.1 h 0.9 z m 0.2,-0.8 1.6,-5.6 1.6,5.6 z"
   id="path12"
   inkscape:connector-curvature="0" />
  <path
   d="m 39.9,376.1 c 0,-1 -0.3,-1.8 -0.8,-2.3 -0.2,-0.2 -0.4,-0.3 -0.6,-0.4 0.2,-0.1 0.4,-0.3 0.6,-0.4 0.5,-0.5 0.8,-1.3 0.8,-2.3 0,-2.1 -1.1,-3.1 -3.2,-3.1 h -2.4 v 11.8 h 2.4 c 2.1,-0.2 3.2,-1.2 3.2,-3.3 m -4.8,-3.2 v -4.8 h 1.6 c 1.7,0 2.4,0.6 2.4,2.4 0,1.7 -0.7,2.4 -2.4,2.4 z m 3.9,3.2 c 0,1.7 -0.6,2.4 -2.4,2.4 H 35 v -4.8 h 1.6 c 1.7,0 2.4,0.7 2.4,2.4"
   id="path14"
   inkscape:connector-curvature="0" />
  <path
   d="m 48.7,370.6 c 0,-2.1 -1.1,-3.2 -3.1,-3.2 -2,0 -3.1,1.1 -3.1,3.2 v 5.4 c 0,1.2 0.3,2 1,2.6 0.5,0.4 1.2,0.6 2.1,0.6 0.9,0 1.6,-0.2 2.1,-0.6 0.7,-0.5 1,-1.4 1,-2.6 z m -0.9,0 v 5.4 c 0,1.7 -0.7,2.4 -2.3,2.4 -1.5,0 -2.3,-0.8 -2.3,-2.4 v -5.4 c 0,-1.6 0.7,-2.4 2.3,-2.4 1.7,0 2.3,0.7 2.3,2.4"
   id="path16"
   inkscape:connector-curvature="0" />
  <path
   id="polygon18"
   d="m 56.8,377 -4.7,-9.5 -0.1,-0.1 h -0.7 v 11.8 h 0.9 v -9.6 l 4.7,9.6 h 0.7 v -11.8 h -0.8 z"
   inkscape:connector-curvature="0" />
  <path
   id="polygon20"
   d="M 65.7,377 61,367.5 v -0.1 h -0.8 v 11.8 h 0.9 v -9.6 l 4.8,9.6 h 0.7 v -11.8 h -0.9 z"
   inkscape:connector-curvature="0" />
  <path
   id="polygon22"
   d="m 74.5,368.2 v -0.8 h -5.3 v 11.8 h 5.3 v -0.7 h -4.4 v -4.8 h 3.8 v -0.8 h -3.8 v -4.7 z"
   inkscape:connector-curvature="0" />
  <path
   id="polygon24"
   d="m 17.9,391.9 h -5.6 v -7.5 h 5.6 v -1 h -6.6 v 18.1 h 1 v -8.6 h 5.6 z"
   inkscape:connector-curvature="0" />
  <path
   d="m 22.3,383.4 h -0.8 l -2.7,11.7 v 0.1 l -1.4,6.3 h 1.1 l 1.2,-5.5 h 4.6 l 1.2,5.4 v 0.1 h 1.1 z m 1.6,11.6 h -4.1 l 2,-8.8 z"
   id="path26"
   inkscape:connector-curvature="0" />
  <path
   d="m 34,391.7 c 0.6,-0.8 1,-2 1,-3.5 0,-3.2 -1.3,-4.8 -4.1,-4.8 h -3.1 v 18.1 h 3.1 c 2.7,0 4.1,-1.6 4.1,-4.8 0,-1.6 -0.3,-2.8 -1,-3.6 -0.2,-0.3 -0.5,-0.5 -0.8,-0.7 0.3,-0.2 0.6,-0.4 0.8,-0.7 m -3.1,0.2 h -2 v -7.5 h 2 c 2.2,0 3,1.1 3,3.7 0,2.7 -0.8,3.8 -3,3.8 m 3,4.8 c 0,2.7 -0.8,3.7 -3,3.7 h -2 v -7.5 h 2 c 2.2,0 3,1.1 3,3.8"
   id="path28"
   inkscape:connector-curvature="0" />
  <path
   d="m 43.5,391.8 c 0.7,-0.8 1,-2 1,-3.6 0,-3.5 -1.2,-4.9 -4,-4.9 h -3.8 v 18.1 h 1 V 393 H 40 c 2.1,0 3.2,1.2 3.2,3.3 v 5.1 h 1.1 v -5.1 c 0,-1.4 -0.4,-2.4 -1.2,-3.2 -0.2,-0.2 -0.5,-0.4 -0.7,-0.6 0.3,-0.1 0.8,-0.3 1.1,-0.7 m 0,-3.6 c 0,2.6 -1.1,3.8 -3.5,3.8 h -2.3 v -7.6 h 2.8 c 2.2,0 3,1 3,3.8"
   id="path30"
   inkscape:connector-curvature="0" />
  <path
   id="rect32"
   d="m 45.9,383.4 h 1 v 18.1 h -1 z"
   inkscape:connector-curvature="0" />
  <path
   d="m 56.5,396.6 v -8.4 c 0,-3.1 -1.3,-4.8 -3.9,-4.8 -2.6,0 -3.9,1.6 -3.9,4.8 v 8.4 c 0,3.2 1.4,4.9 3.9,4.9 0.9,0 1.6,-0.2 2.2,-0.6 l 1.2,1.4 h 1.4 l -1.8,-2.2 c 0.6,-0.8 0.9,-2 0.9,-3.5 m -1.1,-8.5 v 8.4 c 0,1.2 -0.2,2.1 -0.6,2.7 l -0.7,-0.8 h -1.3 l 1.3,1.5 c -0.4,0.3 -0.9,0.4 -1.5,0.4 -1.9,0 -2.9,-1.3 -2.9,-3.9 V 388 c 0,-2.5 0.9,-3.7 2.9,-3.7 2,0.1 2.8,1.3 2.8,3.8"
   id="path34"
   inkscape:connector-curvature="0" />
  <path
   d="m 64.6,397 c 0,2.4 -0.9,3.5 -2.9,3.5 -2,0 -2.9,-1 -2.9,-3.5 v -13.6 h -1 V 397 c 0,2.9 1.4,4.5 3.9,4.5 2.6,0 3.9,-1.6 3.9,-4.5 v -13.6 h -1 z"
   id="path36"
   inkscape:connector-curvature="0" />
  <path
   id="polygon38"
   d="m 67.5,401.5 h 6.7 v -1 h -5.6 v -7.6 h 4.8 v -1 h -4.8 v -7.5 h 5.6 v -1 h -6.7 z"
   inkscape:connector-curvature="0" />
  <path
   class="st1"
   id="polygon40"
   d="m 24.9,319.4 2.6,-1.1 2.5,1.4 -0.1,2.5 -2.6,1.2 -2.5,-1.4 z"
   inkscape:connector-curvature="0"
   style="fill:#93c021" />
  <path
   class="st2"
   id="polygon42"
   d="m 32.6,315.6 2.6,-1.1 2.5,1.3 -0.2,2.6 -2.6,1.1 -2.5,-1.3 z"
   inkscape:connector-curvature="0"
   style="fill:#4bbcc4" />
  <path
   class="st3"
   id="polygon44"
   d="m 40.2,311.8 2.6,-1.2 2.5,1.4 -0.1,2.6 -2.6,1.1 -2.5,-1.4 z"
   inkscape:connector-curvature="0"
   style="fill:#ee732e" />
  <path
   class="st4"
   id="polygon46"
   d="m 47.8,315.6 2.6,-1.1 2.5,1.3 -0.1,2.6 -2.6,1.1 -2.5,-1.3 z"
   inkscape:connector-curvature="0"
   style="fill:#5c5c5c" />
  <path
   class="st2"
   id="polygon48"
   d="m 55.5,319.5 2.6,-1.2 2.5,1.4 -0.1,2.6 -2.6,1.1 -2.5,-1.4 z"
   inkscape:connector-curvature="0"
   style="fill:#4bbcc4" />
  <path
   class="st3"
   id="polygon50"
   d="m 55.5,327.3 2.6,-1.2 2.5,1.4 -0.1,2.5 -2.6,1.2 -2.5,-1.4 z"
   inkscape:connector-curvature="0"
   style="fill:#ee732e" />
  <path
   class="st5"
   id="polygon52"
   d="m 55.5,334.7 2.6,-1.2 2.5,1.4 -0.1,2.6 -2.6,1.1 -2.5,-1.4 z"
   inkscape:connector-curvature="0"
   style="fill:#fcc62d" />
  <path
   class="st4"
   id="polygon54"
   d="m 47.9,338.6 2.6,-1.1 2.5,1.4 -0.1,2.5 -2.7,1.2 -2.4,-1.4 z"
   inkscape:connector-curvature="0"
   style="fill:#5c5c5c" />
  <path
   class="st4"
   id="polygon56"
   d="m 40.2,342.4 2.6,-1.1 2.5,1.3 -0.1,2.6 -2.6,1.2 -2.5,-1.4 z"
   inkscape:connector-curvature="0"
   style="fill:#5c5c5c" />
  <path
   class="st2"
   id="polygon58"
   d="m 32.6,338.6 2.6,-1.1 2.5,1.4 -0.2,2.5 -2.6,1.2 -2.5,-1.4 z"
   inkscape:connector-curvature="0"
   style="fill:#4bbcc4" />
  <path
   class="st3"
   id="polygon60"
   d="m 24.9,334.7 2.6,-1.2 2.5,1.4 -0.1,2.6 -2.6,1.1 -2.5,-1.4 z"
   inkscape:connector-curvature="0"
   style="fill:#ee732e" />
  <path
   class="st5"
   id="polygon62"
   d="m 24.9,327.1 2.6,-1.1 2.5,1.4 -0.1,2.5 -2.6,1.2 -2.5,-1.4 z"
   inkscape:connector-curvature="0"
   style="fill:#fcc62d" />
  <path
   class="st4"
   id="polygon64"
   d="m 18,316.1 1.8,-0.9 1.8,1 -0.1,1.9 -1.8,0.8 -1.8,-1 z"
   inkscape:connector-curvature="0"
   style="fill:#5c5c5c" />
  <path
   class="st3"
   id="polygon66"
   d="m 25.6,312.2 1.9,-0.8 1.8,1 -0.1,1.8 -1.9,0.8 -1.8,-0.9 z"
   inkscape:connector-curvature="0"
   style="fill:#ee732e" />
  <path
   class="st4"
   id="polygon68"
   d="m 33.3,308.4 1.8,-0.8 1.8,1 -0.1,1.8 -1.8,0.8 -1.8,-1 z"
   inkscape:connector-curvature="0"
   style="fill:#5c5c5c" />
  <path
   class="st1"
   id="polygon70"
   d="m 40.9,304.5 1.9,-0.8 1.8,1 -0.1,1.8 -1.9,0.8 -1.8,-1 z"
   inkscape:connector-curvature="0"
   style="fill:#93c021" />
  <path
   class="st5"
   id="polygon72"
   d="m 48.5,308.3 1.9,-0.8 1.7,1 v 1.8 l -1.9,0.8 -1.8,-1 z"
   inkscape:connector-curvature="0"
   style="fill:#fcc62d" />
  <path
   class="st4"
   id="polygon74"
   d="m 56.2,312.2 1.9,-0.8 1.8,1 -0.1,1.8 -1.9,0.8 -1.7,-0.9 z"
   inkscape:connector-curvature="0"
   style="fill:#5c5c5c" />
  <path
   class="st3"
   id="polygon76"
   d="m 63.9,316 1.9,-0.8 1.7,1 v 1.8 l -1.9,0.8 -1.8,-1 z"
   inkscape:connector-curvature="0"
   style="fill:#ee732e" />
  <path
   class="st1"
   id="polygon78"
   d="m 63.9,323.7 1.9,-0.8 1.7,1 v 1.8 l -1.9,0.8 -1.8,-1 z"
   inkscape:connector-curvature="0"
   style="fill:#93c021" />
  <path
   class="st4"
   id="polygon80"
   d="m 63.9,331.3 1.9,-0.8 1.7,0.9 v 1.9 l -1.9,0.8 -1.8,-1 z"
   inkscape:connector-curvature="0"
   style="fill:#5c5c5c" />
  <path
   class="st2"
   id="polygon82"
   d="m 63.9,339 1.9,-0.9 1.7,1 v 1.8 l -1.9,0.9 -1.8,-1 z"
   inkscape:connector-curvature="0"
   style="fill:#4bbcc4" />
  <path
   class="st4"
   id="polygon84"
   d="m 56.2,342.8 1.9,-0.8 1.8,1 -0.1,1.8 -1.9,0.8 -1.7,-1 z"
   inkscape:connector-curvature="0"
   style="fill:#5c5c5c" />
  <path
   class="st3"
   id="polygon86"
   d="m 48.5,346.7 1.9,-0.8 1.7,1 v 1.8 l -1.9,0.8 -1.8,-1 z"
   inkscape:connector-curvature="0"
   style="fill:#ee732e" />
  <path
   class="st4"
   id="polygon88"
   d="m 41.1,350.5 1.8,-0.9 1.8,1 -0.1,1.9 -1.8,0.8 -1.8,-1 z"
   inkscape:connector-curvature="0"
   style="fill:#5c5c5c" />
  <path
   class="st5"
   id="polygon90"
   d="m 33.3,346.7 1.8,-0.8 1.8,1 -0.1,1.8 -1.8,0.8 -1.8,-1 z"
   inkscape:connector-curvature="0"
   style="fill:#fcc62d" />
  <path
   class="st1"
   id="polygon92"
   d="m 25.6,342.8 1.9,-0.8 1.8,1 -0.1,1.8 -1.9,0.8 -1.8,-1 z"
   inkscape:connector-curvature="0"
   style="fill:#93c021" />
  <path
   class="st2"
   id="polygon94"
   d="m 18,339 1.8,-0.9 1.8,1 -0.1,1.9 -1.8,0.8 -1.8,-1 z"
   inkscape:connector-curvature="0"
   style="fill:#4bbcc4" />
  <path
   class="st4"
   id="polygon96"
   d="m 18,331.4 1.8,-0.8 1.8,0.9 -0.1,1.9 -1.8,0.8 -1.8,-1 z"
   inkscape:connector-curvature="0"
   style="fill:#5c5c5c" />
  <path
   class="st3"
   id="polygon98"
   d="m 18,323.7 1.8,-0.8 1.8,1 -0.1,1.8 -1.8,0.8 -1.8,-1 z"
   inkscape:connector-curvature="0"
   style="fill:#ee732e" />
  <path
   class="st3"
   id="polygon100"
   d="m 11.1,312.6 1,-0.4 1,0.5 -0.1,1 -1,0.4 -0.9,-0.5 z"
   inkscape:connector-curvature="0"
   style="fill:#ee732e" />
  <path
   class="st4"
   id="polygon102"
   d="m 18.8,308.9 1,-0.5 0.9,0.6 v 0.9 l -1,0.5 -1,-0.6 z"
   inkscape:connector-curvature="0"
   style="fill:#5c5c5c" />
  <path
   class="st2"
   id="polygon104"
   d="m 26.4,305 1,-0.5 1,0.5 -0.1,1 -0.9,0.5 -1,-0.6 z"
   inkscape:connector-curvature="0"
   style="fill:#4bbcc4" />
  <path
   class="st3"
   id="polygon106"
   d="m 34.1,301.1 1,-0.4 0.9,0.5 v 1 l -1,0.4 -0.9,-0.5 z"
   inkscape:connector-curvature="0"
   style="fill:#ee732e" />
  <path
   class="st4"
   id="polygon108"
   d="m 41.8,297.3 1,-0.4 0.9,0.5 v 1 l -1,0.4 -1,-0.5 z"
   inkscape:connector-curvature="0"
   style="fill:#5c5c5c" />
  <path
   class="st3"
   id="polygon110"
   d="m 49.3,301.1 1,-0.4 1,0.5 -0.1,1 -1,0.4 -0.9,-0.5 z"
   inkscape:connector-curvature="0"
   style="fill:#ee732e" />
  <path
   class="st2"
   id="polygon112"
   d="m 57.1,305 1,-0.4 0.9,0.5 v 1 l -1,0.4 -1,-0.5 z"
   inkscape:connector-curvature="0"
   style="fill:#4bbcc4" />
  <path
   class="st1"
   id="polygon114"
   d="m 64.7,308.8 1,-0.5 1,0.6 -0.1,0.9 -1,0.5 -0.9,-0.5 z"
   inkscape:connector-curvature="0"
   style="fill:#93c021" />
  <path
   class="st2"
   id="polygon116"
   d="m 72.4,312.7 1,-0.5 0.9,0.6 v 0.9 l -1,0.5 -1,-0.6 z"
   inkscape:connector-curvature="0"
   style="fill:#4bbcc4" />
  <path
   class="st5"
   id="polygon118"
   d="m 72.4,320.3 1,-0.4 0.9,0.5 v 1 l -1,0.4 -1,-0.5 z"
   inkscape:connector-curvature="0"
   style="fill:#fcc62d" />
  <path
   class="st4"
   id="polygon120"
   d="m 72.4,327.9 1,-0.4 0.9,0.5 v 1 l -1,0.4 -1,-0.5 z"
   inkscape:connector-curvature="0"
   style="fill:#5c5c5c" />
  <path
   class="st1"
   id="polygon122"
   d="m 72.4,335.6 1,-0.5 0.9,0.5 v 1 l -1,0.5 -1,-0.6 z"
   inkscape:connector-curvature="0"
   style="fill:#93c021" />
  <path
   class="st4"
   id="polygon124"
   d="m 72.4,343.2 1,-0.4 0.9,0.5 v 1 l -1,0.4 -1,-0.5 z"
   inkscape:connector-curvature="0"
   style="fill:#5c5c5c" />
  <path
   class="st3"
   id="polygon126"
   d="m 64.7,347.1 1,-0.5 1,0.6 -0.1,0.9 -1,0.5 -0.9,-0.5 z"
   inkscape:connector-curvature="0"
   style="fill:#ee732e" />
  <path
   class="st1"
   id="polygon128"
   d="m 57.1,350.9 1,-0.4 0.9,0.5 v 1 l -1,0.4 -1,-0.5 z"
   inkscape:connector-curvature="0"
   style="fill:#93c021" />
  <path
   class="st4"
   id="polygon130"
   d="m 49.4,354.7 1,-0.4 1,0.5 -0.1,1 -1,0.4 -0.9,-0.5 z"
   inkscape:connector-curvature="0"
   style="fill:#5c5c5c" />
  <path
   class="st3"
   id="polygon132"
   d="m 41.8,358.6 1,-0.5 0.9,0.5 v 1 l -1,0.5 -1,-0.6 z"
   inkscape:connector-curvature="0"
   style="fill:#ee732e" />
  <path
   class="st4"
   id="polygon134"
   d="m 11.1,320.3 1,-0.4 1,0.5 -0.1,1 -1,0.4 -0.9,-0.5 z"
   inkscape:connector-curvature="0"
   style="fill:#5c5c5c" />
  <path
   class="st2"
   id="polygon136"
   d="m 11.1,327.9 1,-0.4 1,0.5 -0.1,1 -1,0.4 -0.9,-0.5 z"
   inkscape:connector-curvature="0"
   style="fill:#4bbcc4" />
  <path
   class="st3"
   id="polygon138"
   d="m 11.1,335.6 1,-0.5 1,0.5 -0.1,1 -1,0.5 -0.9,-0.6 z"
   inkscape:connector-curvature="0"
   style="fill:#ee732e" />
  <path
   class="st5"
   id="polygon140"
   d="m 11.1,343.3 1,-0.5 1,0.6 -0.1,0.9 -1,0.5 -0.9,-0.6 z"
   inkscape:connector-curvature="0"
   style="fill:#fcc62d" />
  <path
   class="st3"
   id="polygon142"
   d="m 18.8,347.2 1,-0.5 0.9,0.6 v 0.9 l -1,0.5 -1,-0.6 z"
   inkscape:connector-curvature="0"
   style="fill:#ee732e" />
  <path
   class="st2"
   id="polygon144"
   d="m 26.4,350.9 1,-0.4 1,0.5 -0.1,1 -0.9,0.4 -1,-0.5 z"
   inkscape:connector-curvature="0"
   style="fill:#4bbcc4" />
  <path
   class="st4"
   id="polygon146"
   d="m 34.1,354.7 1,-0.4 0.9,0.5 v 1 l -1,0.4 -0.9,-0.5 z"
   inkscape:connector-curvature="0"
   style="fill:#5c5c5c" />
  <path
   class="st4"
   id="polygon148"
   d="m 40.3,319.7 2.4,-1.2 2.3,1.2 v 2.3 l -2.3,1.2 -2.3,-1.2 z"
   inkscape:connector-curvature="0"
   style="fill:#5c5c5c" />
  <path
   class="st4"
   id="polygon150"
   d="m 48,323.6 2.3,-1.2 2.4,1.1 v 2.4 l -2.3,1.2 -2.4,-1.2 z"
   inkscape:connector-curvature="0"
   style="fill:#5c5c5c" />
  <path
   class="st4"
   id="polygon152"
   d="m 48,331.1 2.3,-1.2 2.4,1.2 v 2.3 l -2.3,1.2 -2.4,-1.1 z"
   inkscape:connector-curvature="0"
   style="fill:#5c5c5c" />
  <path
   class="st4"
   id="polygon154"
   d="m 32.7,331.1 2.3,-1.2 2.4,1.2 v 2.3 l -2.3,1.2 -2.4,-1.1 z"
   inkscape:connector-curvature="0"
   style="fill:#5c5c5c" />
  <path
   class="st4"
   id="polygon156"
   d="m 32.7,323.6 2.3,-1.2 2.4,1.1 v 2.4 l -2.3,1.2 -2.4,-1.2 z"
   inkscape:connector-curvature="0"
   style="fill:#5c5c5c" />
  <path
   class="st4"
   id="polygon158"
   d="m 40.3,334.9 2.4,-1.1 2.3,1.1 v 2.3 l -2.3,1.2 -2.3,-1.1 z"
   inkscape:connector-curvature="0"
   style="fill:#5c5c5c" />
  <path
   class="st5"
   id="polygon160"
   d="m 39.1,319.4 3.7,-1.9 3.7,1.8 v 3.7 l -3.7,1.9 -3.7,-1.8 z"
   inkscape:connector-curvature="0"
   style="fill:#fcc62d" />
  <path
   class="st1"
   id="polygon162"
   d="m 46.5,323.1 3.8,-1.9 3.7,1.8 v 3.8 l -3.7,1.8 -3.7,-1.8 z"
   inkscape:connector-curvature="0"
   style="fill:#93c021" />
  <path
   class="st2"
   id="polygon164"
   d="m 46.5,330.5 3.8,-1.9 3.7,1.9 v 3.7 l -3.7,1.9 -3.7,-1.8 z"
   inkscape:connector-curvature="0"
   style="fill:#4bbcc4" />
  <path
   class="st4"
   id="polygon166"
   d="m 31.6,330.5 3.7,-1.9 3.7,1.9 0.1,3.7 -3.8,1.9 -3.7,-1.8 z"
   inkscape:connector-curvature="0"
   style="fill:#5c5c5c" />
  <path
   class="st4"
   id="polygon168"
   d="m 31.6,323.1 3.7,-1.9 3.7,1.8 0.1,3.8 -3.8,1.8 -3.7,-1.8 z"
   inkscape:connector-curvature="0"
   style="fill:#5c5c5c" />
  <path
   class="st3"
   id="polygon170"
   d="m 39.1,334.4 3.7,-1.9 3.7,1.8 v 3.8 l -3.7,1.9 -3.7,-1.9 z"
   inkscape:connector-curvature="0"
   style="fill:#ee732e" />
  <path
   id="polygon172"
   d="M 188.9,318.4 H 181 v -20 h -1.6 v 21.3 h 9.5 z"
   inkscape:connector-curvature="0" />
  <path
   d="m 196.3,313.3 h 6.5 l 1.8,6.4 h 1.6 l -6,-21.3 H 199 l -3.9,13.7 v 0.1 l -2.1,7.5 h 1.6 z m 0.4,-1.3 2.8,-10.1 2.9,10.1 z"
   id="path174"
   inkscape:connector-curvature="0" />
  <path
   d="m 231.5,314.1 c 0,-1.9 -0.5,-3.3 -1.4,-4.2 -0.3,-0.3 -0.7,-0.6 -1.1,-0.8 0.4,-0.2 0.8,-0.5 1.1,-0.8 0.9,-0.9 1.4,-2.4 1.4,-4.2 0,-3.8 -1.9,-5.7 -5.9,-5.7 h -4.4 v 21.3 h 4.4 c 4,0 5.9,-1.8 5.9,-5.6 m -8.7,-5.7 v -8.6 h 2.8 c 3.1,0 4.3,1.2 4.3,4.3 0,3.1 -1.2,4.3 -4.3,4.3 z m 7.1,5.7 c 0,3.1 -1.2,4.3 -4.3,4.3 h -2.8 v -8.7 h 2.8 c 3.1,0 4.3,1.3 4.3,4.4"
   id="path176"
   inkscape:connector-curvature="0" />
  <path
   d="m 247.6,304.1 c 0,-3.7 -2,-5.7 -5.7,-5.7 -3.7,0 -5.7,2 -5.7,5.7 v 9.8 c 0,2.1 0.6,3.7 1.9,4.7 0.9,0.7 2.2,1.1 3.8,1.1 1.6,0 2.9,-0.4 3.8,-1.1 1.3,-1 1.9,-2.5 1.9,-4.7 z m -1.6,0 v 9.8 c 0,3 -1.3,4.4 -4.1,4.4 -2.8,0 -4.1,-1.4 -4.1,-4.4 v -9.8 c 0,-3 1.3,-4.4 4.1,-4.4 2.8,0.1 4.1,1.4 4.1,4.4"
   id="path178"
   inkscape:connector-curvature="0" />
  <path
   id="polygon180"
   d="m 262.1,315.7 -8.5,-17.2 v -0.1 h -1.4 v 21.3 h 1.6 v -17.3 l 8.6,17.3 h 1.3 v -21.3 h -1.6 z"
   inkscape:connector-curvature="0" />
  <path
   id="polygon182"
   d="m 278.3,315.7 -8.5,-17.2 v -0.1 h -1.4 v 21.3 h 1.6 v -17.3 l 8.6,17.3 h 1.3 v -21.3 h -1.6 z"
   inkscape:connector-curvature="0" />
  <path
   id="polygon184"
   d="m 294.3,299.8 v -1.4 h -9.6 v 21.3 h 9.6 v -1.3 h -8.1 v -8.7 h 6.9 v -1.3 h -6.9 v -8.6 z"
   inkscape:connector-curvature="0" />
  <path
   id="polygon186"
   d="m 191.7,342.8 h -10.2 v -13.6 h 10.2 v -1.9 h -12.1 v 32.8 h 1.9 v -15.5 h 10.2 z"
   inkscape:connector-curvature="0" />
  <path
   d="M 199.5,327.3 H 198 l -4.9,21.2 v 0.2 l -2.6,11.5 h 1.9 l 2.2,-9.9 h 8.3 l 2.2,9.8 v 0.1 h 1.9 l -7.5,-32.7 z m 3,21.1 h -7.4 l 3.7,-15.9 z"
   id="path188"
   inkscape:connector-curvature="0" />
  <path
   d="m 220.9,342.4 c 1.1,-1.4 1.7,-3.6 1.7,-6.4 0,-5.8 -2.4,-8.7 -7.4,-8.7 h -5.5 v 32.8 h 5.5 c 5,0 7.4,-2.8 7.4,-8.7 0,-2.8 -0.6,-5 -1.7,-6.5 -0.4,-0.5 -0.9,-0.9 -1.5,-1.3 0.6,-0.2 1,-0.6 1.5,-1.2 m -5.6,0.4 h -3.6 v -13.6 h 3.6 c 3.9,0 5.4,1.9 5.4,6.8 0,4.8 -1.5,6.8 -5.4,6.8 m 5.4,8.7 c 0,4.9 -1.5,6.8 -5.4,6.8 h -3.6 v -13.6 h 3.6 c 3.9,-0.1 5.4,1.9 5.4,6.8"
   id="path190"
   inkscape:connector-curvature="0" />
  <path
   d="m 238,342.6 c 1.2,-1.4 1.8,-3.6 1.8,-6.6 0,-6.2 -2.1,-8.8 -7.2,-8.8 h -7 V 360 h 1.9 v -15.2 h 4.1 c 3.7,0 5.9,2.2 5.9,6 v 9.2 h 1.9 v -9.2 c 0,-2.5 -0.7,-4.4 -2.2,-5.9 -0.4,-0.4 -0.9,-0.8 -1.3,-1 0.7,-0.2 1.6,-0.7 2.1,-1.3 m 0,-6.5 c 0,4.7 -2,6.9 -6.3,6.9 h -4.1 v -13.8 h 5.1 c 3.9,0 5.3,1.7 5.3,6.9"
   id="path192"
   inkscape:connector-curvature="0" />
  <path
   id="rect194"
   d="m 242.5,327.3 h 1.9 v 32.8 h -1.9 z"
   inkscape:connector-curvature="0" />
  <path
   d="M 261.6,351.2 V 336 c 0,-5.6 -2.4,-8.6 -7.1,-8.6 -4.7,0 -7.1,2.9 -7.1,8.6 v 15.2 c 0,5.9 2.5,8.9 7.1,8.9 1.6,0 2.9,-0.4 4,-1.1 l 2.2,2.6 h 2.5 l -3.3,-3.9 c 1.1,-1.5 1.7,-3.7 1.7,-6.5 m -1.9,-15.3 v 15.2 c 0,2.2 -0.3,3.8 -1,5 l -1.2,-1.4 h -2.4 l 2.3,2.8 c -0.8,0.5 -1.7,0.7 -2.8,0.7 -3.5,0 -5.2,-2.3 -5.2,-7.1 v -15.2 c 0,-4.6 1.7,-6.7 5.2,-6.7 3.5,0 5.1,2.1 5.1,6.7"
   id="path196"
   inkscape:connector-curvature="0" />
  <path
   d="m 276.3,352 c 0,4.3 -1.6,6.3 -5.2,6.3 -3.7,0 -5.3,-1.9 -5.3,-6.3 V 327.3 H 264 V 352 c 0,5.3 2.5,8.1 7.1,8.1 4.6,0 7.1,-2.8 7.1,-8.1 v -24.7 h -1.9 z"
   id="path198"
   inkscape:connector-curvature="0" />
  <path
   id="polygon200"
   d="m 281.7,360.1 h 12 v -1.8 h -10.2 v -13.7 h 8.8 v -1.8 h -8.8 v -13.6 h 10.2 v -1.9 h -12 z"
   inkscape:connector-curvature="0" />
  <path
   class="st1"
   id="polygon202"
   d="m 112.6,320.8 2.6,-1.1 2.5,1.4 -0.1,2.5 -2.6,1.2 -2.5,-1.4 z"
   inkscape:connector-curvature="0"
   style="fill:#93c021" />
  <path
   class="st2"
   id="polygon204"
   d="m 120.3,317 2.6,-1.2 2.5,1.4 -0.1,2.6 -2.6,1.1 -2.5,-1.4 z"
   inkscape:connector-curvature="0"
   style="fill:#4bbcc4" />
  <path
   class="st3"
   id="polygon206"
   d="m 128,313.2 2.6,-1.2 2.5,1.4 -0.2,2.5 -2.6,1.2 -2.5,-1.4 z"
   inkscape:connector-curvature="0"
   style="fill:#ee732e" />
  <path
   class="st4"
   id="polygon208"
   d="m 135.5,317 2.6,-1.2 2.5,1.4 -0.1,2.6 -2.6,1.1 -2.5,-1.4 z"
   inkscape:connector-curvature="0"
   style="fill:#5c5c5c" />
  <path
   class="st2"
   id="polygon210"
   d="m 143.3,320.9 2.6,-1.2 2.5,1.4 -0.2,2.6 -2.6,1.1 -2.4,-1.4 z"
   inkscape:connector-curvature="0"
   style="fill:#4bbcc4" />
  <path
   class="st3"
   id="polygon212"
   d="m 143.3,328.7 2.6,-1.2 2.5,1.4 -0.2,2.5 -2.6,1.2 -2.4,-1.4 z"
   inkscape:connector-curvature="0"
   style="fill:#ee732e" />
  <path
   class="st5"
   id="polygon214"
   d="m 143.3,336.1 2.6,-1.2 2.5,1.4 -0.2,2.6 -2.6,1.1 -2.4,-1.4 z"
   inkscape:connector-curvature="0"
   style="fill:#fcc62d" />
  <path
   class="st4"
   id="polygon216"
   d="m 135.6,340 2.6,-1.1 2.5,1.3 -0.1,2.6 -2.6,1.2 -2.5,-1.4 z"
   inkscape:connector-curvature="0"
   style="fill:#5c5c5c" />
  <path
   class="st4"
   id="polygon218"
   d="m 127.9,343.8 2.6,-1.2 2.5,1.4 -0.1,2.6 -2.6,1.1 -2.5,-1.3 z"
   inkscape:connector-curvature="0"
   style="fill:#5c5c5c" />
  <path
   class="st2"
   id="polygon220"
   d="m 120.3,340 2.6,-1.1 2.5,1.3 -0.1,2.6 -2.6,1.2 -2.5,-1.4 z"
   inkscape:connector-curvature="0"
   style="fill:#4bbcc4" />
  <path
   class="st3"
   id="polygon222"
   d="m 112.6,336.1 2.6,-1.2 2.5,1.4 -0.1,2.6 -2.6,1.1 -2.5,-1.4 z"
   inkscape:connector-curvature="0"
   style="fill:#ee732e" />
  <path
   class="st5"
   id="polygon224"
   d="m 112.6,328.5 2.6,-1.1 2.5,1.4 -0.1,2.5 -2.6,1.2 -2.5,-1.4 z"
   inkscape:connector-curvature="0"
   style="fill:#fcc62d" />
  <path
   class="st4"
   id="polygon226"
   d="m 105.7,317.5 1.9,-0.9 1.7,1 v 1.9 l -1.9,0.8 -1.8,-1 z"
   inkscape:connector-curvature="0"
   style="fill:#5c5c5c" />
  <path
   class="st3"
   id="polygon228"
   d="m 113.4,313.6 1.8,-0.8 1.8,1 -0.1,1.8 -1.8,0.8 -1.8,-1 z"
   inkscape:connector-curvature="0"
   style="fill:#ee732e" />
  <path
   class="st4"
   id="polygon230"
   d="m 121,309.8 1.9,-0.8 1.8,1 -0.1,1.8 -1.9,0.8 -1.8,-1 z"
   inkscape:connector-curvature="0"
   style="fill:#5c5c5c" />
  <path
   class="st1"
   id="polygon232"
   d="m 128.7,305.9 1.8,-0.9 1.8,1 -0.1,1.9 -1.8,0.8 -1.8,-1 z"
   inkscape:connector-curvature="0"
   style="fill:#93c021" />
  <path
   class="st5"
   id="polygon234"
   d="m 136.2,309.7 1.9,-0.8 1.8,1 -0.1,1.8 -1.9,0.8 -1.7,-1 z"
   inkscape:connector-curvature="0"
   style="fill:#fcc62d" />
  <path
   class="st4"
   id="polygon236"
   d="m 144,313.6 1.8,-0.8 1.8,1 -0.1,1.8 -1.8,0.8 -1.8,-1 z"
   inkscape:connector-curvature="0"
   style="fill:#5c5c5c" />
  <path
   class="st3"
   id="polygon238"
   d="m 151.6,317.4 1.9,-0.8 1.8,1 -0.1,1.8 -1.9,0.8 -1.7,-1 z"
   inkscape:connector-curvature="0"
   style="fill:#ee732e" />
  <path
   class="st1"
   id="polygon240"
   d="m 151.6,325.1 1.9,-0.8 1.8,0.9 -0.1,1.9 -1.9,0.8 -1.7,-1 z"
   inkscape:connector-curvature="0"
   style="fill:#93c021" />
  <path
   class="st4"
   id="polygon242"
   d="m 151.6,332.7 1.9,-0.9 1.8,1 -0.1,1.9 -1.9,0.8 -1.7,-1 z"
   inkscape:connector-curvature="0"
   style="fill:#5c5c5c" />
  <path
   class="st2"
   id="polygon244"
   d="m 151.6,340.3 1.9,-0.8 1.8,1 -0.1,1.8 -1.9,0.9 -1.7,-1 z"
   inkscape:connector-curvature="0"
   style="fill:#4bbcc4" />
  <path
   class="st4"
   id="polygon246"
   d="m 144,344.2 1.8,-0.8 1.8,1 -0.1,1.8 -1.8,0.8 -1.8,-1 z"
   inkscape:connector-curvature="0"
   style="fill:#5c5c5c" />
  <path
   class="st3"
   id="polygon248"
   d="m 136.2,348.1 1.9,-0.8 1.8,1 -0.1,1.8 -1.9,0.8 -1.7,-1 z"
   inkscape:connector-curvature="0"
   style="fill:#ee732e" />
  <path
   class="st4"
   id="polygon250"
   d="m 128.8,351.9 1.9,-0.9 1.7,1 v 1.9 l -1.9,0.8 -1.8,-1 z"
   inkscape:connector-curvature="0"
   style="fill:#5c5c5c" />
  <path
   class="st5"
   id="polygon252"
   d="m 121,348.1 1.9,-0.8 1.8,1 -0.1,1.8 -1.9,0.8 -1.8,-1 z"
   inkscape:connector-curvature="0"
   style="fill:#fcc62d" />
  <path
   class="st1"
   id="polygon254"
   d="m 113.4,344.2 1.8,-0.8 1.8,1 -0.1,1.8 -1.8,0.8 -1.8,-1 z"
   inkscape:connector-curvature="0"
   style="fill:#93c021" />
  <path
   class="st2"
   id="polygon256"
   d="m 105.7,340.4 1.9,-0.9 1.7,1 v 1.9 l -1.9,0.8 -1.8,-1 z"
   inkscape:connector-curvature="0"
   style="fill:#4bbcc4" />
  <path
   class="st4"
   id="polygon258"
   d="m 105.7,332.8 1.9,-0.9 1.7,1 v 1.9 l -1.9,0.8 -1.8,-1 z"
   inkscape:connector-curvature="0"
   style="fill:#5c5c5c" />
  <path
   class="st3"
   id="polygon260"
   d="m 105.7,325.1 1.9,-0.8 1.7,1 v 1.8 l -1.9,0.8 -1.8,-1 z"
   inkscape:connector-curvature="0"
   style="fill:#ee732e" />
  <path
   class="st3"
   id="polygon262"
   d="m 98.9,314 1,-0.4 0.9,0.5 v 1 l -1,0.4 -1,-0.5 z"
   inkscape:connector-curvature="0"
   style="fill:#ee732e" />
  <path
   class="st4"
   id="polygon264"
   d="m 106.5,310.3 1,-0.5 1,0.5 -0.1,1 -1,0.5 -0.9,-0.6 z"
   inkscape:connector-curvature="0"
   style="fill:#5c5c5c" />
  <path
   class="st2"
   id="polygon266"
   d="m 114.2,306.3 1,-0.4 0.9,0.5 v 1 l -1,0.4 -1,-0.5 z"
   inkscape:connector-curvature="0"
   style="fill:#4bbcc4" />
  <path
   class="st3"
   id="polygon268"
   d="m 121.8,302.5 1,-0.4 1,0.5 -0.1,1 -1,0.4 -0.9,-0.5 z"
   inkscape:connector-curvature="0"
   style="fill:#ee732e" />
  <path
   class="st4"
   id="polygon270"
   d="m 129.5,298.7 1,-0.4 0.9,0.5 v 1 l -1,0.4 -0.9,-0.5 z"
   inkscape:connector-curvature="0"
   style="fill:#5c5c5c" />
  <path
   class="st3"
   id="polygon272"
   d="m 137.1,302.5 1,-0.4 0.9,0.5 v 1 l -1,0.4 -1,-0.5 z"
   inkscape:connector-curvature="0"
   style="fill:#ee732e" />
  <path
   class="st2"
   id="polygon274"
   d="m 144.8,306.4 1,-0.4 1,0.5 -0.1,1 -1,0.4 -0.9,-0.5 z"
   inkscape:connector-curvature="0"
   style="fill:#4bbcc4" />
  <path
   class="st1"
   id="polygon276"
   d="m 152.5,310.2 1,-0.5 0.9,0.6 v 0.9 l -1,0.5 -1,-0.6 z"
   inkscape:connector-curvature="0"
   style="fill:#93c021" />
  <path
   class="st2"
   id="polygon278"
   d="m 160.1,314.1 1,-0.5 1,0.6 -0.1,0.9 -1,0.5 -0.9,-0.6 z"
   inkscape:connector-curvature="0"
   style="fill:#4bbcc4" />
  <path
   class="st5"
   id="polygon280"
   d="m 160.1,321.7 1,-0.4 1,0.5 -0.1,1 -1,0.4 -0.9,-0.5 z"
   inkscape:connector-curvature="0"
   style="fill:#fcc62d" />
  <path
   class="st4"
   id="polygon282"
   d="m 160.1,329.3 1,-0.4 1,0.5 -0.1,1 -1,0.4 -0.9,-0.5 z"
   inkscape:connector-curvature="0"
   style="fill:#5c5c5c" />
  <path
   class="st1"
   id="polygon284"
   d="m 160.1,336.9 1,-0.4 1,0.5 -0.1,1 -1,0.5 -0.9,-0.6 z"
   inkscape:connector-curvature="0"
   style="fill:#93c021" />
  <path
   class="st4"
   id="polygon286"
   d="m 160.1,344.6 1,-0.4 1,0.5 -0.1,1 -1,0.4 -0.9,-0.5 z"
   inkscape:connector-curvature="0"
   style="fill:#5c5c5c" />
  <path
   class="st3"
   id="polygon288"
   d="m 152.5,348.5 1,-0.5 0.9,0.6 v 0.9 l -1,0.5 -1,-0.6 z"
   inkscape:connector-curvature="0"
   style="fill:#ee732e" />
  <path
   class="st1"
   id="polygon290"
   d="m 144.8,352.3 1,-0.4 1,0.5 -0.1,1 -1,0.4 -0.9,-0.5 z"
   inkscape:connector-curvature="0"
   style="fill:#93c021" />
  <path
   class="st4"
   id="polygon292"
   d="m 137.2,356.1 0.9,-0.4 1,0.5 v 1 l -1,0.4 -1,-0.5 z"
   inkscape:connector-curvature="0"
   style="fill:#5c5c5c" />
  <path
   class="st3"
   id="polygon294"
   d="m 129.5,359.9 1,-0.4 0.9,0.5 v 1 l -1,0.4 -0.9,-0.5 z"
   inkscape:connector-curvature="0"
   style="fill:#ee732e" />
  <path
   class="st4"
   id="polygon296"
   d="m 98.9,321.7 1,-0.4 0.9,0.5 v 1 l -1,0.4 -1,-0.5 z"
   inkscape:connector-curvature="0"
   style="fill:#5c5c5c" />
  <path
   class="st2"
   id="polygon298"
   d="m 98.9,329.3 1,-0.4 0.9,0.5 v 1 l -1,0.4 -1,-0.5 z"
   inkscape:connector-curvature="0"
   style="fill:#4bbcc4" />
  <path
   class="st3"
   id="polygon300"
   d="m 98.9,336.9 1,-0.4 0.9,0.5 v 1 l -1,0.5 -1,-0.6 z"
   inkscape:connector-curvature="0"
   style="fill:#ee732e" />
  <path
   class="st5"
   id="polygon302"
   d="m 98.9,344.7 1,-0.5 0.9,0.6 v 0.9 l -1,0.5 -1,-0.6 z"
   inkscape:connector-curvature="0"
   style="fill:#fcc62d" />
  <path
   class="st3"
   id="polygon304"
   d="m 106.5,348.6 1,-0.5 1,0.5 -0.1,1 -1,0.5 -0.9,-0.6 z"
   inkscape:connector-curvature="0"
   style="fill:#ee732e" />
  <path
   class="st2"
   id="polygon306"
   d="m 114.2,352.3 1,-0.4 0.9,0.5 v 1 l -1,0.4 -1,-0.5 z"
   inkscape:connector-curvature="0"
   style="fill:#4bbcc4" />
  <path
   class="st4"
   id="polygon308"
   d="m 121.8,356.1 1,-0.4 1,0.5 -0.1,1 -1,0.4 -0.9,-0.5 z"
   inkscape:connector-curvature="0"
   style="fill:#5c5c5c" />
  <path
   class="st4"
   id="polygon310"
   d="m 128.1,321.1 2.3,-1.2 2.3,1.1 0.1,2.4 -2.4,1.2 -2.3,-1.2 z"
   inkscape:connector-curvature="0"
   style="fill:#5c5c5c" />
  <path
   class="st4"
   id="polygon312"
   d="m 135.8,325 2.3,-1.2 2.3,1.1 v 2.4 l -2.3,1.1 -2.3,-1.1 z"
   inkscape:connector-curvature="0"
   style="fill:#5c5c5c" />
  <path
   class="st4"
   id="polygon314"
   d="m 135.8,332.5 2.3,-1.2 2.3,1.2 v 2.3 l -2.3,1.2 -2.3,-1.2 z"
   inkscape:connector-curvature="0"
   style="fill:#5c5c5c" />
  <path
   class="st4"
   id="polygon316"
   d="m 120.4,332.5 2.4,-1.2 2.3,1.2 v 2.3 l -2.3,1.2 -2.3,-1.2 z"
   inkscape:connector-curvature="0"
   style="fill:#5c5c5c" />
  <path
   class="st4"
   id="polygon318"
   d="m 120.4,325 2.4,-1.2 2.3,1.1 v 2.4 l -2.3,1.1 -2.3,-1.1 z"
   inkscape:connector-curvature="0"
   style="fill:#5c5c5c" />
  <path
   class="st4"
   id="polygon320"
   d="m 128.1,336.3 2.3,-1.2 2.3,1.2 0.1,2.3 -2.4,1.2 -2.3,-1.1 z"
   inkscape:connector-curvature="0"
   style="fill:#5c5c5c" />
  <path
   class="st5"
   id="polygon322"
   d="m 126.8,320.8 3.7,-1.9 3.8,1.8 v 3.7 l -3.7,1.9 -3.8,-1.8 z"
   inkscape:connector-curvature="0"
   style="fill:#fcc62d" />
  <path
   class="st1"
   id="polygon324"
   d="m 134.3,324.5 3.7,-1.9 3.7,1.8 0.1,3.7 -3.8,1.9 -3.7,-1.8 z"
   inkscape:connector-curvature="0"
   style="fill:#93c021" />
  <path
   class="st2"
   id="polygon326"
   d="m 134.3,331.9 3.7,-1.9 3.7,1.9 0.1,3.7 -3.8,1.9 -3.7,-1.8 z"
   inkscape:connector-curvature="0"
   style="fill:#4bbcc4" />
  <path
   class="st4"
   id="polygon328"
   d="m 119.3,331.9 3.7,-1.9 3.8,1.9 v 3.7 l -3.7,1.9 -3.8,-1.8 z"
   inkscape:connector-curvature="0"
   style="fill:#5c5c5c" />
  <path
   class="st4"
   id="polygon330"
   d="m 119.3,324.5 3.7,-1.9 3.8,1.8 v 3.7 l -3.7,1.9 -3.8,-1.8 z"
   inkscape:connector-curvature="0"
   style="fill:#5c5c5c" />
  <path
   class="st3"
   id="polygon332"
   d="m 126.8,335.8 3.7,-1.9 3.8,1.8 v 3.8 l -3.7,1.8 -3.8,-1.8 z"
   inkscape:connector-curvature="0"
   style="fill:#ee732e" />
  <g
   id="g5148"
   transform="matrix(0.58824,0,0,0.58824,-6.5880377,-6.17672)">
    <g
   id="g394"
   style="fill:#ffffff;fill-opacity:1;stroke:none;stroke-opacity:1"
   transform="translate(6.597109)">
      <path
   id="polygon334"
   d="M 104.8,38.8 V 10.5 h 1.7 v 27 h 10.6 v 1.3 z"
   style="fill:#ffffff;fill-opacity:1;stroke:none;stroke-opacity:1"
   inkscape:connector-curvature="0" />
      <path
   id="polygon336"
   class="st6"
   stroke-miterlimit="10"
   d="M 104.8,38.8 V 10.5 h 1.7 v 27 h 10.6 v 1.3 z"
   style="fill:none;fill-opacity:1;stroke:none;stroke-width:0.28299999;stroke-miterlimit:10;stroke-opacity:1"
   inkscape:connector-curvature="0" />
      <path
   id="path338"
   d="m 136.4,30.1 h -9.2 l -2.4,8.7 h -1.7 l 2.7,-9.8 v -0.1 l 5.3,-18.4 h 1.3 l 8,28.3 h -1.7 z m -8.8,-1.3 H 136 L 131.8,14 Z"
   style="fill:#ffffff;fill-opacity:1;stroke:none;stroke-opacity:1"
   inkscape:connector-curvature="0" />
      <path
   id="path340"
   d="m 136.4,30.1 h -9.2 l -2.4,8.7 h -1.7 l 2.7,-9.8 v -0.1 l 5.3,-18.4 h 1.3 l 8,28.3 h -1.7 z m -8.8,-1.3 H 136 L 131.8,14 Z"
   class="st6"
   stroke-miterlimit="10"
   style="fill:none;fill-opacity:1;stroke:none;stroke-width:0.28299999;stroke-miterlimit:10;stroke-opacity:1"
   inkscape:connector-curvature="0" />
      <path
   id="path342"
   d="M 161.2,38.8 V 10.5 h 5.7 c 5.3,0 7.7,2.5 7.7,7.4 0,2.4 -0.6,4.3 -1.8,5.5 -0.6,0.5 -1.1,0.9 -1.9,1.3 0.7,0.3 1.3,0.7 1.9,1.2 1.2,1.2 1.8,3.1 1.8,5.6 0,4.9 -2.4,7.4 -7.7,7.4 h -5.7 z m 1.7,-27 V 24 h 4.1 c 4.3,0 6,-1.8 6,-6.1 0,-4.4 -1.7,-6.1 -6,-6.1 z m 0,13.5 v 12.2 h 4.1 c 4.3,0 6,-1.7 6,-6.1 0,-4.4 -1.8,-6.1 -6,-6.1 z"
   style="fill:#ffffff;fill-opacity:1;stroke:none;stroke-opacity:1"
   inkscape:connector-curvature="0" />
      <path
   id="path344"
   d="M 161.2,38.8 V 10.5 h 5.7 c 5.3,0 7.7,2.5 7.7,7.4 0,2.4 -0.6,4.3 -1.8,5.5 -0.6,0.5 -1.1,0.9 -1.9,1.3 0.7,0.3 1.3,0.7 1.9,1.2 1.2,1.2 1.8,3.1 1.8,5.6 0,4.9 -2.4,7.4 -7.7,7.4 h -5.7 z m 1.7,-27 V 24 h 4.1 c 4.3,0 6,-1.8 6,-6.1 0,-4.4 -1.7,-6.1 -6,-6.1 z m 0,13.5 v 12.2 h 4.1 c 4.3,0 6,-1.7 6,-6.1 0,-4.4 -1.8,-6.1 -6,-6.1 z"
   class="st6"
   stroke-miterlimit="10"
   style="fill:none;fill-opacity:1;stroke:none;stroke-width:0.28299999;stroke-miterlimit:10;stroke-opacity:1"
   inkscape:connector-curvature="0" />
      <path
   id="path346"
   d="m 181.5,18 c 0,-4.8 2.5,-7.5 7.4,-7.5 5,0 7.4,2.6 7.4,7.5 v 13.3 c 0,3.2 -1,5 -2.4,6.1 -1.4,1.1 -3.3,1.4 -5,1.4 -1.7,0 -3.5,-0.3 -5,-1.4 -1.4,-1.1 -2.4,-2.9 -2.4,-6.1 z m 1.6,13.3 c 0,4.2 1.9,6.2 5.8,6.2 3.8,0 5.8,-1.9 5.8,-6.2 V 18 c 0,-4.3 -1.9,-6.2 -5.8,-6.2 -3.9,0 -5.8,2 -5.8,6.2 z"
   style="fill:#ffffff;fill-opacity:1;stroke:none;stroke-opacity:1"
   inkscape:connector-curvature="0" />
      <path
   id="path348"
   d="m 181.5,18 c 0,-4.8 2.5,-7.5 7.4,-7.5 5,0 7.4,2.6 7.4,7.5 v 13.3 c 0,3.2 -1,5 -2.4,6.1 -1.4,1.1 -3.3,1.4 -5,1.4 -1.7,0 -3.5,-0.3 -5,-1.4 -1.4,-1.1 -2.4,-2.9 -2.4,-6.1 z m 1.6,13.3 c 0,4.2 1.9,6.2 5.8,6.2 3.8,0 5.8,-1.9 5.8,-6.2 V 18 c 0,-4.3 -1.9,-6.2 -5.8,-6.2 -3.9,0 -5.8,2 -5.8,6.2 z"
   class="st6"
   stroke-miterlimit="10"
   style="fill:none;fill-opacity:1;stroke:none;stroke-width:0.28299999;stroke-miterlimit:10;stroke-opacity:1"
   inkscape:connector-curvature="0" />
      <path
   id="polygon350"
   d="m 204.8,14.5 v 24.3 h -1.6 V 10.5 h 1.4 l 12,24.2 V 10.5 h 1.6 v 28.3 h -1.3 z"
   style="fill:#ffffff;fill-opacity:1;stroke:none;stroke-opacity:1"
   inkscape:connector-curvature="0" />
      <path
   id="polygon352"
   class="st6"
   stroke-miterlimit="10"
   d="m 204.8,14.5 v 24.3 h -1.6 V 10.5 h 1.4 l 12,24.2 V 10.5 h 1.6 v 28.3 h -1.3 z"
   style="fill:none;fill-opacity:1;stroke:none;stroke-width:0.28299999;stroke-miterlimit:10;stroke-opacity:1"
   inkscape:connector-curvature="0" />
      <path
   id="polygon354"
   d="m 226.8,14.5 v 24.3 h -1.7 V 10.5 h 1.4 l 12,24.2 V 10.5 h 1.6 v 28.3 h -1.3 z"
   style="fill:#ffffff;fill-opacity:1;stroke:none;stroke-opacity:1"
   inkscape:connector-curvature="0" />
      <path
   id="polygon356"
   class="st6"
   stroke-miterlimit="10"
   d="m 226.8,14.5 v 24.3 h -1.7 V 10.5 h 1.4 l 12,24.2 V 10.5 h 1.6 v 28.3 h -1.3 z"
   style="fill:none;fill-opacity:1;stroke:none;stroke-width:0.28299999;stroke-miterlimit:10;stroke-opacity:1"
   inkscape:connector-curvature="0" />
      <path
   id="polygon358"
   d="M 259.6,11.8 H 248.7 V 24 h 9.3 v 1.3 h -9.3 v 12.2 h 10.9 v 1.3 H 247.1 V 10.5 h 12.5 z"
   style="fill:#ffffff;fill-opacity:1;stroke:none;stroke-opacity:1"
   inkscape:connector-curvature="0" />
      <path
   id="polygon360"
   class="st6"
   stroke-miterlimit="10"
   d="M 259.6,11.8 H 248.7 V 24 h 9.3 v 1.3 h -9.3 v 12.2 h 10.9 v 1.3 H 247.1 V 10.5 h 12.5 z"
   style="fill:none;fill-opacity:1;stroke:none;stroke-width:0.28299999;stroke-miterlimit:10;stroke-opacity:1"
   inkscape:connector-curvature="0" />
      <path
   id="polygon362"
   d="m 120.8,51.6 h -13.7 v 18.9 h 13.7 v 2 h -13.7 v 21 h -2 V 49.6 h 15.7 z"
   style="fill:#ffffff;fill-opacity:1;stroke:none;stroke-opacity:1"
   inkscape:connector-curvature="0" />
      <path
   id="polygon364"
   class="st6"
   stroke-miterlimit="10"
   d="m 120.8,51.6 h -13.7 v 18.9 h 13.7 v 2 h -13.7 v 21 h -2 V 49.6 h 15.7 z"
   style="fill:none;fill-opacity:1;stroke:none;stroke-width:0.28299999;stroke-miterlimit:10;stroke-opacity:1"
   inkscape:connector-curvature="0" />
      <path
   id="path366"
   d="m 136.5,80.1 h -11.6 l -3,13.4 h -2.1 l 3.5,-15.2 v -0.2 l 6.6,-28.5 h 1.6 l 10,43.9 h -2.1 z m -11.1,-2 H 136 l -5.3,-22.9 z"
   style="fill:#ffffff;fill-opacity:1;stroke:none;stroke-opacity:1"
   inkscape:connector-curvature="0" />
      <path
   id="path368"
   d="m 136.5,80.1 h -11.6 l -3,13.4 h -2.1 l 3.5,-15.2 v -0.2 l 6.6,-28.5 h 1.6 l 10,43.9 h -2.1 z m -11.1,-2 H 136 l -5.3,-22.9 z"
   class="st6"
   stroke-miterlimit="10"
   style="fill:none;fill-opacity:1;stroke:none;stroke-width:0.28299999;stroke-miterlimit:10;stroke-opacity:1"
   inkscape:connector-curvature="0" />
      <path
   id="path370"
   d="M 145.8,93.5 V 49.6 h 7.2 c 6.7,0 9.7,3.8 9.7,11.5 0,3.8 -0.8,6.6 -2.3,8.5 -0.7,0.8 -1.4,1.4 -2.4,2 0.9,0.5 1.7,1 2.4,1.9 1.5,1.9 2.3,4.8 2.3,8.6 0,7.6 -3,11.5 -9.7,11.5 h -7.2 z m 2,-41.9 v 18.9 h 5.1 c 5.4,0 7.6,-2.7 7.6,-9.4 0,-6.8 -2.1,-9.4 -7.6,-9.4 h -5.1 z m 0,20.9 v 19 h 5.1 c 5.5,0 7.6,-2.7 7.6,-9.4 0,-6.8 -2.2,-9.5 -7.6,-9.5 h -5.1 z"
   style="fill:#ffffff;fill-opacity:1;stroke:none;stroke-opacity:1"
   inkscape:connector-curvature="0" />
      <path
   id="path372"
   d="M 145.8,93.5 V 49.6 h 7.2 c 6.7,0 9.7,3.8 9.7,11.5 0,3.8 -0.8,6.6 -2.3,8.5 -0.7,0.8 -1.4,1.4 -2.4,2 0.9,0.5 1.7,1 2.4,1.9 1.5,1.9 2.3,4.8 2.3,8.6 0,7.6 -3,11.5 -9.7,11.5 h -7.2 z m 2,-41.9 v 18.9 h 5.1 c 5.4,0 7.6,-2.7 7.6,-9.4 0,-6.8 -2.1,-9.4 -7.6,-9.4 h -5.1 z m 0,20.9 v 19 h 5.1 c 5.5,0 7.6,-2.7 7.6,-9.4 0,-6.8 -2.2,-9.5 -7.6,-9.5 h -5.1 z"
   class="st6"
   stroke-miterlimit="10"
   style="fill:none;fill-opacity:1;stroke:none;stroke-width:0.28299999;stroke-miterlimit:10;stroke-opacity:1"
   inkscape:connector-curvature="0" />
      <path
   id="path374"
   d="m 185.4,93.4 h -2.1 V 81.2 c 0,-5.3 -3,-8.3 -8.2,-8.3 h -5.9 v 20.5 h -2 V 49.5 h 9.2 c 7,0 9.5,3.6 9.5,11.7 0,3.9 -0.8,6.8 -2.4,8.7 -0.7,0.8 -2.2,1.5 -3.3,2 0.8,0.4 1.6,0.9 2.2,1.6 2,1.9 2.9,4.4 2.9,7.8 V 93.4 Z M 169.3,70.8 h 5.9 c 5.8,0 8.8,-2.9 8.8,-9.6 0,-6.8 -1.7,-9.6 -7.5,-9.6 h -7.2 z"
   style="fill:#ffffff;fill-opacity:1;stroke:none;stroke-opacity:1"
   inkscape:connector-curvature="0" />
      <path
   id="path376"
   d="m 185.4,93.4 h -2.1 V 81.2 c 0,-5.3 -3,-8.3 -8.2,-8.3 h -5.9 v 20.5 h -2 V 49.5 h 9.2 c 7,0 9.5,3.6 9.5,11.7 0,3.9 -0.8,6.8 -2.4,8.7 -0.7,0.8 -2.2,1.5 -3.3,2 0.8,0.4 1.6,0.9 2.2,1.6 2,1.9 2.9,4.4 2.9,7.8 V 93.4 Z M 169.3,70.8 h 5.9 c 5.8,0 8.8,-2.9 8.8,-9.6 0,-6.8 -1.7,-9.6 -7.5,-9.6 h -7.2 z"
   class="st6"
   stroke-miterlimit="10"
   style="fill:none;fill-opacity:1;stroke:none;stroke-width:0.28299999;stroke-miterlimit:10;stroke-opacity:1"
   inkscape:connector-curvature="0" />
      <path
   id="rect378"
   d="m 190.10001,49.599998 h 2 V 93.5 h -2 z"
   style="fill:#ffffff;fill-opacity:1;stroke:none;stroke-opacity:1"
   inkscape:connector-curvature="0" />
      <path
   id="rect380"
   class="st6"
   stroke-miterlimit="10"
   d="m 190.10001,49.599998 h 2 V 93.5 h -2 z"
   style="fill:none;fill-opacity:1;stroke:none;stroke-width:0.28299999;stroke-miterlimit:10;stroke-opacity:1"
   inkscape:connector-curvature="0" />
      <path
   id="path382"
   d="m 213,90.4 4.2,5.1 h -2.7 l -3,-3.6 c -1.5,1.1 -3.3,1.6 -5.5,1.6 -6.3,0 -9.4,-4.3 -9.4,-11.9 V 61 c 0,-7.5 3.1,-11.4 9.4,-11.4 6.2,0 9.3,3.9 9.3,11.4 v 20.6 c 0,3.7 -0.8,6.6 -2.3,8.7 z m -5.7,-3.7 h 2.6 l 1.8,2.1 c 1.1,-1.6 1.6,-4 1.6,-7.2 V 61 c 0,-6.6 -2.3,-9.4 -7.2,-9.4 -4.9,0 -7.3,2.9 -7.3,9.4 v 20.6 c 0,6.6 2.4,9.8 7.3,9.8 1.6,0 3.1,-0.4 4.2,-1.2 z"
   style="fill:#ffffff;fill-opacity:1;stroke:none;stroke-opacity:1"
   inkscape:connector-curvature="0" />
      <path
   id="path384"
   d="m 213,90.4 4.2,5.1 h -2.7 l -3,-3.6 c -1.5,1.1 -3.3,1.6 -5.5,1.6 -6.3,0 -9.4,-4.3 -9.4,-11.9 V 61 c 0,-7.5 3.1,-11.4 9.4,-11.4 6.2,0 9.3,3.9 9.3,11.4 v 20.6 c 0,3.7 -0.8,6.6 -2.3,8.7 z m -5.7,-3.7 h 2.6 l 1.8,2.1 c 1.1,-1.6 1.6,-4 1.6,-7.2 V 61 c 0,-6.6 -2.3,-9.4 -7.2,-9.4 -4.9,0 -7.3,2.9 -7.3,9.4 v 20.6 c 0,6.6 2.4,9.8 7.3,9.8 1.6,0 3.1,-0.4 4.2,-1.2 z"
   class="st6"
   stroke-miterlimit="10"
   style="fill:none;fill-opacity:1;stroke:none;stroke-width:0.28299999;stroke-miterlimit:10;stroke-opacity:1"
   inkscape:connector-curvature="0" />
      <path
   id="path386"
   d="m 219.1,49.5 h 2 v 33.2 c 0,5.5 1.8,8.7 7.4,8.7 5.8,0 7.3,-3.7 7.3,-8.7 V 49.5 h 2 v 33.2 c 0,6.6 -2.7,10.7 -9.3,10.7 -6.8,0 -9.4,-4.5 -9.4,-10.7 z"
   style="fill:#ffffff;fill-opacity:1;stroke:none;stroke-opacity:1"
   inkscape:connector-curvature="0" />
      <path
   id="path388"
   d="m 219.1,49.5 h 2 v 33.2 c 0,5.5 1.8,8.7 7.4,8.7 5.8,0 7.3,-3.7 7.3,-8.7 V 49.5 h 2 v 33.2 c 0,6.6 -2.7,10.7 -9.3,10.7 -6.8,0 -9.4,-4.5 -9.4,-10.7 z"
   class="st6"
   stroke-miterlimit="10"
   style="fill:none;fill-opacity:1;stroke:none;stroke-width:0.28299999;stroke-miterlimit:10;stroke-opacity:1"
   inkscape:connector-curvature="0" />
      <path
   id="polygon390"
   d="M 258.8,51.6 H 245 v 18.9 h 11.8 v 2 H 245 v 19 h 13.8 v 2 H 243 V 49.6 h 15.8 z"
   style="fill:#ffffff;fill-opacity:1;stroke:none;stroke-opacity:1"
   inkscape:connector-curvature="0" />
      <path
   id="polygon392"
   class="st6"
   stroke-miterlimit="10"
   d="M 258.8,51.6 H 245 v 18.9 h 11.8 v 2 H 245 v 19 h 13.8 v 2 H 243 V 49.6 h 15.8 z"
   style="fill:none;fill-opacity:1;stroke:none;stroke-width:0.28299999;stroke-miterlimit:10;stroke-opacity:1"
   inkscape:connector-curvature="0" />
    </g>
    <g
   id="g530">
      <path
   id="polygon396"
   class="st1"
   d="m 32.5,39.9 3.3,1.8 -0.2,3.3 -3.4,1.5 -3.2,-1.8 0.2,-3.3 z"
   inkscape:connector-curvature="0"
   style="fill:#93c021" />
      <path
   id="polygon398"
   class="st2"
   d="m 42.5,34.9 3.2,1.8 -0.1,3.3 -3.4,1.5 -3.2,-1.8 0.1,-3.3 z"
   inkscape:connector-curvature="0"
   style="fill:#4bbcc4" />
      <path
   id="polygon400"
   class="st3"
   d="m 52.4,29.9 3.3,1.8 -0.2,3.4 -3.4,1.5 -3.2,-1.8 0.2,-3.4 z"
   inkscape:connector-curvature="0"
   style="fill:#ee732e" />
      <path
   id="polygon402"
   class="st7"
   d="m 62.3,34.9 3.2,1.8 -0.1,3.3 -3.4,1.5 -3.3,-1.8 0.2,-3.3 z"
   inkscape:connector-curvature="0"
   style="fill:#e73737" />
      <path
   id="polygon404"
   class="st2"
   d="m 72.3,40 3.3,1.8 -0.2,3.3 -3.4,1.5 -3.2,-1.8 0.2,-3.3 z"
   inkscape:connector-curvature="0"
   style="fill:#4bbcc4" />
      <path
   id="polygon406"
   class="st3"
   d="m 72.3,50.1 3.3,1.8 -0.2,3.3 -3.4,1.5 -3.2,-1.8 0.2,-3.3 z"
   inkscape:connector-curvature="0"
   style="fill:#ee732e" />
      <path
   id="polygon408"
   class="st5"
   d="m 72.3,59.7 3.3,1.8 -0.2,3.3 -3.4,1.6 -3.2,-1.9 0.2,-3.3 z"
   inkscape:connector-curvature="0"
   style="fill:#fcc62d" />
      <path
   id="polygon410"
   class="st7"
   d="m 62.4,64.8 3.2,1.8 -0.1,3.3 -3.4,1.6 -3.2,-1.9 0.1,-3.3 z"
   inkscape:connector-curvature="0"
   style="fill:#e73737" />
      <path
   id="polygon412"
   class="st8"
   d="m 52.4,69.8 3.2,1.8 -0.1,3.3 -3.4,1.5 -3.2,-1.8 0.1,-3.3 z"
   inkscape:connector-curvature="0"
   style="fill:#5e4b99" />
      <path
   id="polygon414"
   class="st2"
   d="m 42.5,64.8 3.2,1.8 -0.1,3.3 -3.4,1.6 -3.2,-1.9 0.1,-3.3 z"
   inkscape:connector-curvature="0"
   style="fill:#4bbcc4" />
      <path
   id="polygon416"
   class="st3"
   d="m 32.5,59.7 3.3,1.8 -0.2,3.3 -3.4,1.6 -3.2,-1.9 0.2,-3.3 z"
   inkscape:connector-curvature="0"
   style="fill:#ee732e" />
      <path
   id="polygon418"
   class="st5"
   d="m 32.5,49.9 3.3,1.8 -0.2,3.3 -3.4,1.5 -3.2,-1.8 0.2,-3.3 z"
   inkscape:connector-curvature="0"
   style="fill:#fcc62d" />
      <path
   id="polygon420"
   class="st8"
   d="m 22.5,36 2.4,1.2 -0.1,2.4 -2.5,1.1 L 20,39.4 20.1,37 Z"
   inkscape:connector-curvature="0"
   style="fill:#5e4b99" />
      <path
   id="polygon422"
   class="st3"
   d="m 32.5,31 2.3,1.2 -0.1,2.4 -2.4,1.1 L 30,34.4 30.1,32 Z"
   inkscape:connector-curvature="0"
   style="fill:#ee732e" />
      <path
   id="polygon424"
   class="st8"
   d="m 42.4,26 2.4,1.3 -0.1,2.3 -2.5,1.1 -2.3,-1.3 0.1,-2.3 z"
   inkscape:connector-curvature="0"
   style="fill:#5e4b99" />
      <path
   id="polygon426"
   class="st1"
   d="m 52.4,20.9 2.3,1.3 -0.1,2.4 -2.4,1 L 49.9,24.3 50,22 Z"
   inkscape:connector-curvature="0"
   style="fill:#93c021" />
      <path
   id="polygon428"
   class="st5"
   d="m 62.2,25.9 2.4,1.3 -0.2,2.3 -2.4,1.1 -2.3,-1.3 0.1,-2.3 z"
   inkscape:connector-curvature="0"
   style="fill:#fcc62d" />
      <path
   id="polygon430"
   class="st8"
   d="m 72.3,31 2.3,1.2 -0.1,2.4 -2.4,1.1 -2.3,-1.3 0.1,-2.4 z"
   inkscape:connector-curvature="0"
   style="fill:#5e4b99" />
      <path
   id="polygon432"
   class="st3"
   d="m 82.2,35.9 2.4,1.3 -0.1,2.3 -2.5,1.1 -2.3,-1.3 0.1,-2.4 z"
   inkscape:connector-curvature="0"
   style="fill:#ee732e" />
      <path
   id="polygon434"
   class="st1"
   d="m 82.2,45.9 2.4,1.2 -0.1,2.4 -2.5,1.1 -2.3,-1.3 0.1,-2.4 z"
   inkscape:connector-curvature="0"
   style="fill:#93c021" />
      <path
   id="polygon436"
   class="st8"
   d="m 82.2,55.7 2.4,1.3 -0.1,2.4 -2.5,1.1 -2.3,-1.3 0.1,-2.4 z"
   inkscape:connector-curvature="0"
   style="fill:#5e4b99" />
      <path
   id="polygon438"
   class="st2"
   d="m 82.2,65.7 2.4,1.3 -0.1,2.3 -2.5,1.1 -2.3,-1.3 0.1,-2.3 z"
   inkscape:connector-curvature="0"
   style="fill:#4bbcc4" />
      <path
   id="polygon440"
   class="st8"
   d="m 72.3,70.7 2.3,1.3 -0.1,2.4 -2.4,1 -2.3,-1.3 0.1,-2.3 z"
   inkscape:connector-curvature="0"
   style="fill:#5e4b99" />
      <path
   id="polygon442"
   class="st3"
   d="m 62.2,75.8 2.4,1.3 -0.2,2.3 -2.4,1.1 -2.3,-1.3 0.1,-2.4 z"
   inkscape:connector-curvature="0"
   style="fill:#ee732e" />
      <path
   id="polygon444"
   class="st7"
   d="m 52.6,80.7 2.3,1.3 -0.1,2.3 -2.4,1.1 -2.4,-1.3 0.2,-2.4 z"
   inkscape:connector-curvature="0"
   style="fill:#e73737" />
      <path
   id="polygon446"
   class="st5"
   d="m 42.4,75.8 2.4,1.3 -0.1,2.3 -2.5,1.1 -2.3,-1.3 0.1,-2.4 z"
   inkscape:connector-curvature="0"
   style="fill:#fcc62d" />
      <path
   id="polygon448"
   class="st1"
   d="m 32.5,70.7 2.3,1.3 -0.1,2.4 -2.4,1 -2.3,-1.3 0.1,-2.3 z"
   inkscape:connector-curvature="0"
   style="fill:#93c021" />
      <path
   id="polygon450"
   class="st2"
   d="m 22.5,65.7 2.4,1.3 -0.1,2.4 -2.5,1.1 -2.3,-1.3 0.1,-2.4 z"
   inkscape:connector-curvature="0"
   style="fill:#4bbcc4" />
      <path
   id="polygon452"
   class="st7"
   d="m 22.5,55.8 2.4,1.3 -0.1,2.4 -2.5,1.1 -2.3,-1.3 0.1,-2.4 z"
   inkscape:connector-curvature="0"
   style="fill:#e73737" />
      <path
   id="polygon454"
   class="st3"
   d="m 22.5,45.9 2.4,1.3 -0.1,2.4 -2.5,1 L 20,49.3 20.1,47 Z"
   inkscape:connector-curvature="0"
   style="fill:#ee732e" />
      <path
   id="polygon456"
   class="st3"
   d="m 12.6,32 1.2,0.7 -0.1,1.2 -1.3,0.6 -1.2,-0.7 0.1,-1.3 z"
   inkscape:connector-curvature="0"
   style="fill:#ee732e" />
      <path
   id="polygon458"
   class="st7"
   d="m 22.5,27.1 1.2,0.7 V 29 l -1.3,0.6 -1.2,-0.7 v -1.2 z"
   inkscape:connector-curvature="0"
   style="fill:#e73737" />
      <path
   id="polygon460"
   class="st2"
   d="m 32.4,22 1.3,0.7 -0.1,1.3 -1.3,0.5 -1.2,-0.7 0.1,-1.2 z"
   inkscape:connector-curvature="0"
   style="fill:#4bbcc4" />
      <path
   id="polygon462"
   class="st3"
   d="m 42.4,17.1 1.2,0.6 V 19 l -1.3,0.6 -1.2,-0.7 v -1.3 z"
   inkscape:connector-curvature="0"
   style="fill:#ee732e" />
      <path
   id="polygon464"
   class="st7"
   d="m 52.3,12.1 1.3,0.7 -0.1,1.2 -1.3,0.6 -1.2,-0.7 0.1,-1.3 z"
   inkscape:connector-curvature="0"
   style="fill:#e73737" />
      <path
   id="polygon466"
   class="st3"
   d="m 62.2,17.1 1.2,0.6 V 19 l -1.3,0.6 -1.3,-0.7 0.1,-1.3 z"
   inkscape:connector-curvature="0"
   style="fill:#ee732e" />
      <path
   id="polygon468"
   class="st2"
   d="m 72.2,22.1 1.3,0.7 -0.1,1.3 -1.3,0.5 -1.2,-0.7 0.1,-1.2 z"
   inkscape:connector-curvature="0"
   style="fill:#4bbcc4" />
      <path
   id="polygon470"
   class="st1"
   d="m 82.2,27 1.2,0.7 v 1.2 l -1.3,0.6 -1.2,-0.7 v -1.2 z"
   inkscape:connector-curvature="0"
   style="fill:#93c021" />
      <path
   id="polygon472"
   class="st2"
   d="m 92.1,32 1.3,0.7 -0.1,1.3 -1.3,0.6 -1.2,-0.7 0.1,-1.3 z"
   inkscape:connector-curvature="0"
   style="fill:#4bbcc4" />
      <path
   id="polygon474"
   class="st5"
   d="m 92.1,42 1.3,0.6 -0.1,1.3 -1.3,0.6 -1.2,-0.7 0.1,-1.3 z"
   inkscape:connector-curvature="0"
   style="fill:#fcc62d" />
      <path
   id="polygon476"
   class="st7"
   d="m 92.1,51.9 1.3,0.7 -0.1,1.2 -1.3,0.6 -1.2,-0.7 0.1,-1.3 z"
   inkscape:connector-curvature="0"
   style="fill:#e73737" />
      <path
   id="polygon478"
   class="st1"
   d="m 92.1,61.8 1.3,0.7 -0.1,1.2 -1.3,0.6 -1.2,-0.7 0.1,-1.2 z"
   inkscape:connector-curvature="0"
   style="fill:#93c021" />
      <path
   id="polygon480"
   class="st7"
   d="m 92.1,71.8 1.3,0.7 -0.1,1.2 -1.3,0.6 -1.2,-0.7 0.1,-1.3 z"
   inkscape:connector-curvature="0"
   style="fill:#e73737" />
      <path
   id="polygon482"
   class="st3"
   d="m 82.2,76.8 1.2,0.6 v 1.3 l -1.3,0.6 -1.2,-0.7 v -1.3 z"
   inkscape:connector-curvature="0"
   style="fill:#ee732e" />
      <path
   id="polygon484"
   class="st1"
   d="m 72.2,81.8 1.3,0.6 -0.1,1.3 -1.3,0.6 -1.2,-0.7 0.1,-1.3 z"
   inkscape:connector-curvature="0"
   style="fill:#93c021" />
      <path
   id="polygon486"
   class="st7"
   d="m 62.3,86.7 1.2,0.7 v 1.2 L 62.2,89.2 61,88.5 v -1.2 z"
   inkscape:connector-curvature="0"
   style="fill:#e73737" />
      <path
   id="polygon488"
   class="st3"
   d="m 52.3,91.7 1.3,0.7 -0.1,1.2 -1.3,0.6 -1.2,-0.7 0.1,-1.3 z"
   inkscape:connector-curvature="0"
   style="fill:#ee732e" />
      <path
   id="polygon490"
   class="st7"
   d="m 12.6,42 1.2,0.7 -0.1,1.3 -1.3,0.5 -1.2,-0.7 0.1,-1.2 z"
   inkscape:connector-curvature="0"
   style="fill:#e73737" />
      <path
   id="polygon492"
   class="st2"
   d="m 12.6,51.9 1.2,0.7 -0.1,1.2 -1.3,0.6 -1.2,-0.7 0.1,-1.3 z"
   inkscape:connector-curvature="0"
   style="fill:#4bbcc4" />
      <path
   id="polygon494"
   class="st3"
   d="m 12.6,61.8 1.2,0.7 -0.1,1.2 -1.3,0.6 -1.2,-0.7 0.1,-1.2 z"
   inkscape:connector-curvature="0"
   style="fill:#ee732e" />
      <path
   id="polygon496"
   class="st5"
   d="m 12.6,71.8 1.2,0.7 -0.1,1.3 -1.3,0.5 -1.2,-0.7 0.1,-1.2 z"
   inkscape:connector-curvature="0"
   style="fill:#fcc62d" />
      <path
   id="polygon498"
   class="st3"
   d="m 22.5,76.9 1.2,0.7 v 1.2 l -1.3,0.6 -1.2,-0.7 v -1.3 z"
   inkscape:connector-curvature="0"
   style="fill:#ee732e" />
      <path
   id="polygon500"
   class="st2"
   d="m 32.4,81.8 1.3,0.7 -0.1,1.2 -1.3,0.6 -1.2,-0.7 0.1,-1.3 z"
   inkscape:connector-curvature="0"
   style="fill:#4bbcc4" />
      <path
   id="polygon502"
   class="st8"
   d="m 42.4,86.7 1.2,0.7 v 1.2 l -1.3,0.6 -1.2,-0.7 v -1.2 z"
   inkscape:connector-curvature="0"
   style="fill:#5e4b99" />
      <path
   id="polygon504"
   class="st7"
   d="m 52.2,40.2 3.1,1.5 v 3 l -3,1.6 -3.1,-1.5 v -3.1 z"
   inkscape:connector-curvature="0"
   style="fill:#e73737" />
      <path
   id="polygon506"
   class="st7"
   d="m 62.2,45.2 3.1,1.5 v 3.1 l -3,1.5 -3.1,-1.5 v -3 z"
   inkscape:connector-curvature="0"
   style="fill:#e73737" />
      <path
   id="polygon508"
   class="st7"
   d="m 62.2,55 3.1,1.5 v 3.1 l -3,1.5 -3.1,-1.5 v -3 z"
   inkscape:connector-curvature="0"
   style="fill:#e73737" />
      <path
   id="polygon510"
   class="st7"
   d="m 42.3,55 3.1,1.5 v 3.1 l -3,1.5 -3.1,-1.5 v -3 z"
   inkscape:connector-curvature="0"
   style="fill:#e73737" />
      <path
   id="polygon512"
   class="st7"
   d="m 42.3,45.2 3.1,1.5 v 3.1 l -3,1.5 -3.1,-1.5 v -3 z"
   inkscape:connector-curvature="0"
   style="fill:#e73737" />
      <path
   id="polygon514"
   class="st7"
   d="m 52.2,60 3.1,1.5 v 3 l -3,1.6 -3.1,-1.5 v -3.1 z"
   inkscape:connector-curvature="0"
   style="fill:#e73737" />
      <path
   id="polygon516"
   class="st5"
   d="m 52.4,38.8 4.8,2.4 0.1,4.9 -4.9,2.4 -4.8,-2.4 v -4.8 z"
   inkscape:connector-curvature="0"
   style="fill:#fcc62d" />
      <path
   id="polygon518"
   class="st1"
   d="m 62.1,43.7 4.9,2.4 v 4.8 L 62.2,53.4 57.3,51 v -4.9 z"
   inkscape:connector-curvature="0"
   style="fill:#93c021" />
      <path
   id="polygon520"
   class="st2"
   d="m 62.1,53.4 4.9,2.4 v 4.8 l -4.8,2.5 -4.9,-2.4 v -4.9 z"
   inkscape:connector-curvature="0"
   style="fill:#4bbcc4" />
      <path
   id="polygon522"
   class="st7"
   d="m 42.7,53.4 4.8,2.4 0.1,4.8 -4.9,2.5 -4.8,-2.4 -0.1,-4.9 z"
   inkscape:connector-curvature="0"
   style="fill:#e73737" />
      <path
   id="polygon524"
   class="st8"
   d="m 42.7,43.7 4.8,2.4 0.1,4.8 -4.9,2.5 -4.8,-2.4 -0.1,-4.9 z"
   inkscape:connector-curvature="0"
   style="fill:#5e4b99" />
      <path
   id="polygon526"
   class="st3"
   d="m 52.4,58.4 4.8,2.4 0.1,4.8 -4.9,2.5 -4.8,-2.4 v -4.9 z"
   inkscape:connector-curvature="0"
   style="fill:#ee732e" />
      <path
   id="rect528"
   d="M 11.2,10.9 H 98.299998 V 94.200003 H 11.2 Z"
   inkscape:connector-curvature="0"
   style="fill:none" />
    </g>
  </g>
</svg>