<svg xmlns="http://www.w3.org/2000/svg" width="50" height="50" viewBox="0 0 13.229167 13.229167">
  <path d="M6.614583 0L0 3.307292v6.614583l6.614583 3.307292 6.614584-3.307292V3.307292L6.614583 0zm-.914156 2.012797c.626955.0494 1.096758.599372 1.047481 1.226282-.028794.36574-.229841.692767-.541569.883667l.152963.553971c.131802-.0247.274673-.03669.4439-.03669.048163 0 .096968.00101.145728.0031.5181.0177.870677.212498 1.01079.305408l.722954-.641304c-.05218-.12011-.073982-.25184-.063562-.38344.034203-.43629.421972-.772342.86403-.737422.21393.0168.408452.115862.54777.279052.13944.16322.207071.37049.19017.584461-.03424.43617-.417996.773416-.86403.738456-.11844-.009-.233725-.044923-.335897-.103353l-.661975.620117c.386656.39815.61224.934111.625284 1.486731l.457337.029973c.147551-.50652.627515-.846722 1.16737-.804602.617927.0485 1.081573.591018 1.033012 1.209228-.04796.61069-.588915 1.081735-1.209228 1.032495-.513647-.0404-.93534-.428893-1.02061-.932243L8.93899 7.29568c-.131842.63034-.543545 1.181251-1.113627 1.489831l.079582.419613c.021914.00012.043954.000534.066146.002584.522077.0411.913342.499336.872298 1.021126-.038618.49058-.453986.874882-.94568.874882v-.001034c-.024856 0-.050232-.00109-.075447-.0031-.521839-.0411-.912626-.499246-.871781-1.021127.024539-.31133.19695-.586013.464571-.743623l-.06873-.360185c-.240934.0646-.488611.088213-.74104.068213-.408212-.0321-.795729-.17601-1.125512-.41703l-.31161.50798c.099986.13948.147286.307978.133843.479557-.031101.3954-.382043.70103-.783415.66921-.193885-.0152-.370177-.105344-.49661-.253214-.126274-.14791-.187435-.33631-.172083-.5302.030982-.39537.380452-.701273.782898-.668693.038061.003.077216.00902.116272.01912l.352433-.574125c-.37047-.43311-.55653-.978662-.5271-1.545642L3.45302 6.640938c-.112115.44078-.528174.747298-.994254.711068-.252747-.0199-.482654-.136886-.647506-.329696-.164773-.19286-.244678-.438204-.224793-.690913.040487-.51552.497736-.913388 1.021127-.872299.392503.0311.722578.299731.834574.673861l1.212846.109037c.176505-.62321.628561-1.145693 1.222148-1.412833l-.150896-.545187c-.068049.007-.135754.0081-.204638.0031-.626955-.0493-1.096798-.599371-1.047482-1.226281.048482-.61956.59722-1.096788 1.226282-1.047998zm-.009818.11989c-.562525-.0443-1.053025.382953-1.096574.936893-.043947.56057.376357 1.052504.936894 1.096574.077314.006.153957.002732.230476-.008268l.053227-.007752.206706.748275-.049093.02067c-.598995.25223-1.052726.776579-1.21388 1.402499l-.012918.04961-1.398364-.126091-.010336-.041341c-.086662-.34545-.383815-.596689-.738973-.624768-.45916-.0372-.855465.31173-.890901.76171-.01738.22069.052.434704.195853.603064.143853.16831.344252.270458.564824.287838.424439.035.798917-.257536.878499-.666626l.010335-.053227 1.343587.10697-.00155.057361c-.000397.007-.00008.014721-.000517.022221l-.00155.013436c0 .0006-.000119.001067-.000517.002067-.03476.55803.151262 1.095123.525033 1.515153l.029972.03359-.448034.729154-.044442-.013952c-.045697-.0144-.091485-.023372-.135392-.026872-.336506-.0265-.62726.228035-.65319.558105-.012768.16175.038346.318464.14366.441834.105434.12341.252655.198706.414445.211356.334715.0261.62714-.228125.65319-.558105.012091-.15495-.03521-.307405-.133325-.428915l-.027389-.033073.426331-.693497.053227.041341c.322267.25084.70776.400592 1.11466.432532.260184.0208.514771-.00705.761194-.08165l.064596-.01912.11007.577227-.03979.02067c-.253184.13375-.417733.383923-.440284.668693-.035635.45546.306131.855032.76171.890902.458524.037.855307-.311184.890903-.761194.035675-.4555-.305614-.855022-.761194-.890902-.0348-.003-.069706-.003033-.10387-.001033l-.052193.00155-.115755-.608748.03979-.020154c.573662-.29538.985372-.84857 1.100709-1.47898l.009818-.05271.678512.044959.0062.049609c.058067.47058.44386.838696.917258.875916.555366.0443 1.036607-.376798 1.07952-.921908.04327-.55182-.37028-1.035734-.921907-1.079004-.49555-.0391-.93775.285968-1.053683.762228l-.011885.049092-.670244-.043925v-.056844c.00155-.56097-.229397-1.107824-.633553-1.500683l-.045475-.044442.821655-.769979.039791.025838c.094934.0622.205654.100048.319877.109038.37922.0295.70521-.256722.734322-.627352.01428-.18176-.043227-.358408-.161747-.497128-.1184-.13869-.28393-.222438-.465604-.236678-.380333-.0298-.70517.256166-.734323.626835-.00974.12524.014998.250335.071314.361736l.021187.04134-.77308.685747c.054925.0485.061143.076747.051677.105936l-.013436.041342-.047025.002067c-.016266 0-.040415.000268-.142627-.081132l-.056328-.044959.015503-.013436c-.144807-.091-.463583-.251933-.921907-.267684-.047447-.002-.094305-.0031-.141077-.0031-.184539 0-.33519.014258-.473873.044958l-.056327.012403-.208256-.75396.041341-.023254c.299717-.167.49457-.47017.521415-.81132.043947-.56054-.376317-1.052504-.936893-1.096574zm-.021705.279052c.060374.005.12014.016857.176734.035657.323261.10746.530214.420397.503328.760677-.019329.24762-.160682.467811-.378271.589111l-.117306.065112-.132291.019638c-.056157.008-.112865.0106-.167949.0062-.060413-.005-.119741-.016856-.176216-.035656-.32346-.10743-.530611-.420277-.503845-.760677.01559-.19723.107052-.376619.257348-.504879.150495-.12854.341441-.190653.538468-.175183zM9.45162 3.584794c.03305.003.065257.00882.096119.01912.175948.0586.288958.228955.274401.414445-.017539.22153-.212277.38786-.434082.37052-.03281-.003-.064698-.009237-.095601-.019637-.032652-.0109-.063747-.025441-.092501-.044441l-.09095-.059428-.049093-.096635c-.033209-.0657-.047704-.139614-.041858-.213424.01742-.22169.21196-.38786.433565-.37052zM6.956165 5.043103c.044543-.001.125109.006626.257348.050126l.697632.334863.00465.002068.11989.116272c.349988.34044.550196.814092.548804 1.299662l-.000517.166398-.028422.157096c-.099786.54554-.456647 1.024412-.953947 1.280542l-.146244.075448-.15968.047542c-.214447.0644-.436116.088297-.658875.070797-.145802-.0114-.289318-.0407-.426847-.0863-.194203-.0646-.375287-.161564-.537952-.288354l-.130741-.101803-.111104-.12454c-.319603-.3589-.480485-.816328-.455787-1.292428.00262-.0214.003218-.03936.003618-.05116l.003617-.121956.04806-.186035c.139716-.54216.532718-.996016 1.051614-1.214396l.151413-.063562.157096-.03514c.12862-.0284.277303-.030373.434599-.033073.043709-.00072.087668-.001067.131775-.002067zm-4.380095.815454c.044822.004.088743.012555.130742.026355.176027.0586.313811.207053.35915.387573l.029456.11834-.02377.120922c-.053454.27355-.303479.463754-.581878.441834-.044862-.003-.088663-.012255-.13074-.026355-.239663-.0796-.39299-.311717-.373105-.564307.011454-.1462.079247-.279354.190686-.374654.11144-.0951.25322-.141158.39946-.129708zm8.001579.557072c.05898.005.117158.016223.172599.034623.316381.10519.518607.41117.492477.74414-.01511.19277-.10463.36787-.251665.49351-.146954.12568-.33417.186767-.5271.171566-.05898-.005-.116641-.016123-.172082-.034623-.263326-.0875-.455252-.32208-.489376-.59738l-.016536-.131774.031523-.130741c.084315-.34653.403968-.5774.76016-.549321zM4.601786 9.229411c.023465.002.04729.007186.07338.014986l.093018.029455.062529.076998c.053015.0658.078949.14819.072347.23151-.00684.0873-.047509.166293-.114205.223243-.066657.0568-.151566.084414-.238745.077515-.027005-.002-.052896-.006803-.078032-.015503-.143017-.0475-.235014-.18612-.223242-.33693.014198-.1802.172707-.315554.35295-.301274zm3.269051.374654c.02458-.001.047095-.000637.069247.001033.044464.004.088663.012355.130741.026355.239821.0797.393427.311877.37362.564307-.011453.14631-.079484.278927-.191202.374137-.111519.0953-.25314.141685-.399459.130225-.044663-.003-.088703-.012355-.130741-.026355v.000517c-.239821-.0796-.393467-.311837-.37362-.564307.014834-.18852.123858-.354177.29197-.442867l.107488-.056844.121956-.006201z" fill="#4bbbc3" stroke-width=".150317"/>
</svg>
