<svg xmlns="http://www.w3.org/2000/svg" width="50" height="50" viewBox="0 0 13.229167 13.229167">
  <path d="M6.614583.01447L0 3.32176v6.614583l6.614583 3.307292 6.614584-3.307292V3.321761L6.614583.01447zm-3.63492 2.887678c.434716 0 .788583.353396.788583.788066 0 .43472-.353827.788582-.788583.788582-.434636 0-.788066-.353862-.788066-.788582 0-.380336.270536-.69841.62942-.772046.051417-.01038.10422-.01602.158646-.01602zm7.19646 0c.054614 0 .1081.00609.15968.016537.358384.07407.628902.391592.628902.77153 0 .434719-.353826.788581-.788582.788581-.434676 0-.788066-.353862-.788066-.788582 0-.43467.35335-.788066.788066-.788066zM2.775024 4.573364v.000517h.010336c.081176 0 .156463.022038.159163.022738.19262.0473.364347.164329.459403.313159l.006202.007751c.404608.55276.597165.79685.918807.79685.122221 0 .264468-.0342.474906-.114721.032295-.0127.065928-.018603.100252-.018603.115938 0 .22159.072597.263033.180867.026883.0703.024977.14679-.005684.21549-.030664.0687-.086261.120995-.15658.147796-.253909.0976-.475988.14521-.679028.14521-.287517 0-.532495-.097094-.771012-.305924l-.066146-.057878v1.033012l.698665-.001034c.172853 0 .318237.129574.337964.301274l.256832 2.214335c.01062.0899-.014558.178397-.070797.249597-.056478.0715-.13741.116108-.227376.126608-.013762.001-.027302.002067-.040308.002067-.172295 0-.317163-.129177-.337447-.300757L3.884517 7.61969l-1.0573.000517-.015502.001033c-.014358.001-.028534.002067-.042892.002067-.34638 0-.72037-.23099-.72037-.60358v-1.82728c0-.31878.28249-.532745.542087-.596345l.004134-.001034c.000954-.0002.09643-.019704.18035-.021704zm7.54476 0l.010335.000517c.08368.002.179784.021504.181384.021704.26242.0642.54467.278123.54467.596863v1.827795c0 .37259-.373632.60358-.719853.60358-.01805 0-.036044-.0021-.053744-.0031l-1.06195-.001033-.221692 1.912028c-.019886.17162-.164953.301274-.337447.301273-.013244 0-.02615-.001067-.039274-.002067-.090483-.0105-.171416-.055397-.227894-.126607-.056475-.0712-.081773-.16033-.071313-.25063l.256832-2.213302c.019688-.17162.164793-.301274.337964-.301274l.698148.000517V5.907133l-.065629.057878c-.238477.20883-.483694.305924-.771012.305924-.202801 0-.424642-.0476-.679028-.14521-.07024-.0269-.125917-.079492-.15658-.148312-.030628-.0688-.033088-.14519-.006201-.21549.041483-.10831.147612-.180868.26355-.180868.034403 0 .068275.006003.100769.018603.210477.0807.352247.115238.47439.115238.320687-.00004.513205-.243333.917773-.796333l.006718-.008785c.095176-.14859.26726-.26546.461987-.31316.000756-.0003.07581-.022737.157096-.022737v-.000517zm-8.833053.307992v.000517c.13288 0 .240812.107535.240812.240295v2.48822h.645955c.123022.0597.260656.093535.395325.093535.016068 0 .031951-.001068.04806-.002068l.629935-.002067c.034823.0412.05736.092605.05736.150895v1.791622c0 .13276-.10805.240813-.240811.240813-.132801 0-.240813-.108053-.240813-.240813v-1.55081H1.727026v1.55081c0 .13276-.107534.240296-.240295.240296-.132761 0-.240812-.107536-.240812-.240296V5.121651c0-.13276.10805-.240295.240812-.240295zm10.202478.000517c.132839 0 .240812.108052.240812.240812v4.520137c0 .13276-.108053.240812-.240812.240812-.132762 0-.240812-.108052-.240812-.240812v-1.55081h-1.295528v1.55081c0 .13276-.108052.240812-.240813.240812-.13288 0-.240812-.108052-.240812-.240812V7.8512c0-.0585.022788-.110062.057878-.151412l.542602.000517.004651.000517c.01977.001.039775.002584.059945.002584.134582 0 .271856-.033418.394808-.093018h.717269V5.122685c0-.13276.10801-.240812.240812-.240812zM5.020882 6.236312h3.111955c.142928.051.276641.085896.403076.105936.03053.0417.052193.090298.052193.145728 0 .1388-.113374.251664-.25218.251664h-1.4056v2.726966h.264067c.138807 0 .251664.112854.251664.251664s-.112818.251664-.251664.251664H6.162415c-.138808 0-.251665-.112854-.251665-.251664s.112857-.251664.251665-.251664h.264583V6.73964H5.020882c-.138806 0-.251664-.112864-.251664-.251664 0-.13881.112858-.251664.251664-.251664z" fill="#e32e39" stroke-width=".150322"/>
</svg>
